<?xml version="1.0" encoding="utf-8"?>
<!-- Generator: Adobe Illustrator 22.1.0, SVG Export Plug-In . SVG Version: 6.00 Build 0)  -->
<svg version="1.1" id="Layer_1" xmlns="http://www.w3.org/2000/svg" xmlns:xlink="http://www.w3.org/1999/xlink" x="0px" y="0px"
	 viewBox="0 0 68 85" style="enable-background:new 0 0 68 85;" xml:space="preserve">
<g>
	<g>
		<path d="M43.6,63c-2.8,2.1-6.3,3.3-9.8,3.3c-4.4,0-8.5-1.7-11.6-4.8L6.3,45.6c-5.8-5.8-6.4-15-1.6-21.5c0,0.1,10.2,10.4,10.7,10.6
			c-0.9,1.1-0.8,2.7,0.2,3.7l13.7,13.7c1,1,2.6,1,3.7,0.1C33.4,53,43.4,62.9,43.6,63z"/>
	</g>
	<g>
		<path d="M50,57.2c0,0.3-0.1,0.6-0.4,0.9l-4,4c-0.4,0.4-1.1,0.5-1.6,0.1c-0.1,0-2-2-10-10c-0.5-0.6-0.6-1.2,0-1.8l4-4
			c0.5-0.5,1.3-0.5,1.8,0l9.9,9.9C49.9,56.5,50.1,56.8,50,57.2z"/>
	</g>
	<g>
		<path d="M21.3,29.7l-4,4c-0.5,0.5-1.4,0.4-1.8,0c-7.1-7.1-9.9-9.9-10-10c-0.4-0.4-0.3-1.2,0.1-1.6l4-4c0.4-0.5,1.3-0.5,1.8,0
			l9.9,9.9C21.8,28.4,21.8,29.2,21.3,29.7z"/>
	</g>
	<g>
		<path d="M58.4,33.4c-2.6,0-4.7,2.1-4.7,4.7s2.1,4.7,4.7,4.7s4.7-2.1,4.7-4.7S61,33.4,58.4,33.4z M57.4,40.2l-1.7-2l0.8-0.6
			l1.1,1.3l3-2.4l0.6,0.8L57.4,40.2z"/>
		<path d="M58.4,30.1c-4.4,0-8,3.6-8,8.1c0,1.7,0.5,3.4,1.5,4.8l-1.8,4.8l5-2.2c1,0.5,2.2,0.7,3.3,0.7c4.5,0,8.1-3.6,8.1-8
			C66.5,33.7,62.9,30.1,58.4,30.1z M58.4,43.9c-3.1,0-5.7-2.6-5.7-5.7s2.6-5.7,5.7-5.7s5.7,2.6,5.7,5.7S61.6,43.9,58.4,43.9z"/>
	</g>
	<path d="M46.5,35.9v-4.1l-2.3-0.3c-0.3-1.1-0.7-2.1-1.3-3l1.4-1.9l-2.9-2.9L39.5,25c-0.9-0.5-1.9-0.9-2.9-1.2l-0.4-2.4h-4.1
		l-0.4,2.4c-1,0.3-2,0.7-2.9,1.2l-2-1.5l-2.9,2.9l1.5,2c-0.6,0.9-1,1.8-1.2,2.9l-2.5,0.4v4.1l2.4,0.4c0.2,1.1,0.6,2.1,1.2,3L23.9,41
		l2.9,2.9l1.8-1.3c0.9,0.6,2,1,3,1.3l0.3,2.3H36l0.3-2.2c1.1-0.2,2.2-0.7,3.1-1.3l1.8,1.3l2.9-2.9L43,39.3c0.6-0.9,1-2,1.3-3.1
		L46.5,35.9z M38.9,33.8c0,2.6-2.1,4.8-4.8,4.8c-2.6,0-4.8-2.1-4.8-4.8c0-2.6,2.1-4.8,4.8-4.8S38.9,31.1,38.9,33.8z"/>
	<g>
		<path d="M26.6,1.7c-4.4,0-8,3.6-8,8.1c0,1.7,0.5,3.4,1.5,4.8l-1.8,4.8l5-2.2c1,0.5,2.2,0.7,3.3,0.7c4.5,0,8.1-3.6,8.1-8.1
			S31,1.7,26.6,1.7z M29.7,10.1h-6.6v-1h6.6V10.1z M29.7,7.4h-6.6v-1h6.6V7.4z"/>
		<path d="M48.4,3.4v17.7h14.7V3.4H48.4z M61.1,19.1H50.4V5.4h10.7C61.1,5.4,61.1,19.1,61.1,19.1z"/>
		<path d="M60.1,6.4h-8.7v11.7h8.7V6.4z M56,16.8h-3.2v-1H56V16.8z M58.7,14.1h-5.8v-1h5.8V14.1z M58.7,11.4h-5.8v-1h5.8V11.4z
			 M58.7,8.7h-5.8v-1h5.8V8.7z"/>
	</g>
</g>
</svg>
