<?xml version="1.0" encoding="utf-8"?>
<!-- Generator: Adobe Illustrator 22.1.0, SVG Export Plug-In . SVG Version: 6.00 Build 0)  -->
<svg version="1.1" id="Layer_1" xmlns="http://www.w3.org/2000/svg" xmlns:xlink="http://www.w3.org/1999/xlink" x="0px" y="0px"
	 viewBox="0 0 100 125" style="enable-background:new 0 0 100 125;" xml:space="preserve">
<title>Artboard 25</title>
<path d="M87.4,20.1H64.9c-1-1.7-2.3-3.3-3.9-4.6L69.6,7c1.3-1.3,1.2-3.3-0.1-4.6c-1.2-1.2-3.2-1.2-4.5,0l-10,10c-3.2-1-6.7-1-9.9,0
	l-10-10c-1.3-1.3-3.4-1.3-4.7,0c-1.3,1.3-1.3,3.4,0,4.7l8.6,8.6c-1.6,1.3-2.9,2.8-4,4.6H12.6C7,20.2,2.4,24.7,2.4,30.4V83
	c0,5.7,4.5,10.3,10.2,10.3c0,0,0,0,0,0h8.7v3c0,1.3,1,2.3,2.3,2.3h0h6.8c1.3,0,2.3-1,2.3-2.3c0,0,0,0,0,0v-3h34.6v3
	c0,1.3,1,2.3,2.3,2.3h0h6.8c1.3,0,2.3-1,2.3-2.3v0v-3h8.7c5.7,0,10.2-4.6,10.2-10.2c0,0,0,0,0,0V30.4C97.6,24.7,93,20.1,87.4,20.1z
	 M71.9,75.7c0,3-2.5,5.5-5.5,5.5H19.3c-3,0-5.5-2.5-5.5-5.5v-38c0-3,2.5-5.5,5.5-5.5h47.1c3,0,5.5,2.5,5.5,5.5L71.9,75.7z M84.2,70
	c-1.9,0-3.5-1.6-3.5-3.5s1.6-3.5,3.5-3.5c1.9,0,3.5,1.6,3.5,3.5S86.2,70,84.2,70L84.2,70z M84.2,60.1c-1.9,0-3.5-1.6-3.5-3.5
	s1.6-3.5,3.5-3.5c1.9,0,3.5,1.6,3.5,3.5C87.7,58.6,86.2,60.1,84.2,60.1L84.2,60.1z M84.2,50.3c-1.9,0-3.5-1.6-3.5-3.5
	s1.6-3.5,3.5-3.5c1.9,0,3.5,1.6,3.5,3.5C87.7,48.7,86.1,50.3,84.2,50.3L84.2,50.3z M42.8,72.3c-10,0-15.4-9.5-13.7-10
	s4.6,2.3,13.7,2.3s12-2.7,13.7-2.3S52.8,72.2,42.8,72.3L42.8,72.3z M26.9,57c-1-1.1-1-2.8,0-3.8l2.6-2.6L26.9,48
	c-1-1.1-0.9-2.8,0.3-3.8c1-0.9,2.5-0.9,3.6,0l2.6,2.6l2.6-2.6c1-1.1,2.7-1.2,3.8-0.3s1.2,2.7,0.3,3.8c-0.1,0.1-0.2,0.2-0.3,0.3
	l-2.6,2.6l2.6,2.6c1.1,1.1,1.1,2.8,0,3.8s-2.8,1.1-3.8,0l-2.6-2.6L30.7,57C29.7,58,28,58,26.9,57z M58.9,48l-2.6,2.6l2.6,2.6
	c1.1,1.1,1,2.8,0,3.8c-1.1,1.1-2.8,1-3.8,0l0,0l-2.6-2.6L49.8,57c-1.1,1-2.8,1-3.8,0s-1-2.8,0-3.8l2.6-2.6L46,47.9
	c-1.1-1-1.2-2.7-0.3-3.8s2.7-1.2,3.8-0.3c0.1,0.1,0.2,0.2,0.3,0.3l2.6,2.6l2.6-2.6c1.1-1,2.8-0.9,3.8,0.3
	C59.7,45.4,59.7,46.9,58.9,48L58.9,48z"/>
</svg>
