<?xml version="1.0" encoding="utf-8"?>
<!-- Generator: Adobe Illustrator 22.1.0, SVG Export Plug-In . SVG Version: 6.00 Build 0)  -->
<svg version="1.1" id="Layer_1" xmlns="http://www.w3.org/2000/svg" xmlns:xlink="http://www.w3.org/1999/xlink" x="0px" y="0px"
	 viewBox="0 0 100 125" style="enable-background:new 0 0 100 125;" xml:space="preserve">
<g>
	<rect x="41.4" y="56.1" width="4.8" height="13.2"/>
</g>
<g>
	<rect x="58.3" y="56.1" width="4.8" height="13.2"/>
</g>
<g>
	<path d="M57,28h2.5c4.3,0,7.8,3.5,7.8,7.8v12.6h3.1v5.4H34.1v-5.4h3.1V35.8c0-4.3,3.5-7.8,7.8-7.8h4.7c1-7.3,5.8-13.5,12.7-16.3
		c10.5-4.2,22.3,0.9,26.5,11.4c4.2,10.6,5.3,22.2,3,33.4c-0.1,0.6-0.3,1.2-0.4,1.8C85.9,80,63.9,93.1,42.3,87.6
		C20.7,82.1,7.6,60.1,13.1,38.5l7,1.8C15.6,58,26.3,76,44.1,80.5c17.7,4.5,35.8-6.2,40.3-24c0.1-0.5,0.2-1,0.3-1.5
		c2-9.8,1.1-20-2.6-29.3c-2.7-6.7-10.3-10-17.1-7.3C60.9,20.1,57.9,23.7,57,28z"/>
</g>
</svg>
