<?xml version="1.0" encoding="utf-8"?>
<!-- Generator: Adobe Illustrator 22.1.0, SVG Export Plug-In . SVG Version: 6.00 Build 0)  -->
<svg version="1.1" id="Layer_1" xmlns="http://www.w3.org/2000/svg" xmlns:xlink="http://www.w3.org/1999/xlink" x="0px" y="0px"
	 viewBox="0 0 64 80" style="enable-background:new 0 0 64 80;" xml:space="preserve">
<title>technology-idea-innovation-knowledge-alteration</title>
<path d="M43,55c0-1.1-0.9-2-2-2H23c-1.1,0-2,0.9-2,2s0.9,2,2,2h18C42.1,57,43,56.1,43,55z"/>
<path d="M24.8,58h14.4c1,0,1.8,0.8,1.8,1.8v0.4c0,1-0.8,1.8-1.8,1.8l0,0H24.8c-1,0-1.8-0.8-1.8-1.8v-0.4C23,58.8,23.8,58,24.8,58
	C24.8,58,24.8,58,24.8,58z"/>
<path d="M33,17v5c2.2,0,4.4-0.1,6.4-0.3c-0.1-1.7-0.3-3.3-0.7-4.9C36.9,16.9,35,17,33,17z"/>
<path d="M33,29.1c2,0,4-0.1,5.8-0.2c0.4-1.7,0.6-3.4,0.6-5.2C37.4,23.9,35.2,24,33,24L33,29.1z"/>
<path d="M37.1,8.9c-3.3-1.2-6.9-1.2-10.3,0c1.6,0.6,3.4,0.9,5.1,0.8C33.7,9.8,35.5,9.5,37.1,8.9z"/>
<path d="M44.1,14.2c-1.2-1.7-2.8-3.1-4.7-4.2c-0.3,0.2-0.6,0.3-0.9,0.5c0.7,1.3,1.2,2.7,1.7,4.2C41.6,14.5,42.9,14.4,44.1,14.2z"/>
<path d="M33,11.7V15c1.8,0,3.5-0.1,5.2-0.2c-0.4-1.3-0.9-2.5-1.5-3.6C35.5,11.5,34.3,11.7,33,11.7z"/>
<path d="M41.4,21.5c1.9-0.2,3.7-0.5,5.4-0.8c-0.2-1.6-0.8-3.2-1.5-4.7c-1.4,0.2-2.9,0.4-4.5,0.6C41.1,18.2,41.3,19.9,41.4,21.5z"/>
<path d="M40.9,28.7c1.9-0.2,3.6-0.4,5.2-0.7c0.6-1.6,0.9-3.3,0.9-5c0-0.1,0-0.2,0-0.3c-1.7,0.3-3.6,0.6-5.5,0.8
	C41.4,25.3,41.2,27,40.9,28.7z"/>
<path d="M31,11.7c-1.4-0.1-2.8-0.3-4.1-0.7c-0.6,1.2-1.2,2.4-1.6,3.7C27.1,14.9,29,15,31,15V11.7z"/>
<path d="M25,10.3c-0.2-0.1-0.3-0.2-0.5-0.3c-1.8,1.1-3.4,2.5-4.7,4.2c1.1,0.2,2.2,0.3,3.4,0.4C23.7,13.1,24.3,11.7,25,10.3z"/>
<path d="M26.9,37.1c3.3,1.2,6.9,1.2,10.3,0c-1.6-0.6-3.4-0.9-5.1-0.8C30.3,36.2,28.5,36.5,26.9,37.1z"/>
<path d="M31,34.3v-3.1c-2,0-3.9-0.1-5.8-0.2c0.4,1.4,1,2.8,1.7,4C28.2,34.6,29.6,34.3,31,34.3z"/>
<path d="M33,34.3c1.3,0.1,2.5,0.2,3.7,0.6c0.7-1.2,1.2-2.5,1.6-3.9c-1.7,0.1-3.5,0.2-5.3,0.2V34.3z"/>
<path d="M38.6,35.5c0.3,0.1,0.6,0.3,0.9,0.5c2.4-1.4,4.4-3.4,5.7-5.8c-1.5,0.2-3.1,0.4-4.7,0.6C40,32.4,39.4,34,38.6,35.5z"/>
<path d="M31,17c-2.1,0-4.2-0.1-6.2-0.3c-0.4,1.6-0.6,3.3-0.7,4.9c2.2,0.2,4.5,0.3,6.9,0.3V17z"/>
<path d="M22.8,16.6c-1.4-0.1-2.8-0.3-4.1-0.5c-0.8,1.5-1.3,3-1.5,4.7c1.5,0.3,3.2,0.6,4.9,0.8C22.2,19.8,22.4,18.2,22.8,16.6z"/>
<path d="M24.7,28.9c2,0.2,4.1,0.3,6.3,0.3V24c-2.4,0-4.7-0.1-6.9-0.3C24.1,25.4,24.3,27.2,24.7,28.9z"/>
<path d="M18.8,30.2c1.3,2.4,3.3,4.4,5.7,5.8c0.2-0.1,0.3-0.2,0.5-0.3c-0.8-1.6-1.5-3.3-2-5C21.6,30.6,20.2,30.4,18.8,30.2z"/>
<path d="M17.9,28c1.5,0.3,3.1,0.5,4.7,0.7c-0.3-1.7-0.5-3.4-0.5-5.2c-1.8-0.2-3.5-0.5-5.1-0.8c0,0.1,0,0.2,0,0.3
	C17,24.7,17.3,26.4,17.9,28z"/>
<path d="M16,4H8.8C8.3,2.4,6.5,1.6,5,2.2S2.6,4.4,3.2,6S5.4,8.4,7,7.8c0.9-0.3,1.5-1,1.8-1.8H15v4.7c-2.6,3.6-4,7.9-4,12.3
	c0.2,5.7,2,11.3,5.2,16H7v-3.2c1.6-0.6,2.4-2.3,1.8-3.8c-0.6-1.6-2.3-2.4-3.8-1.8S2.6,32.4,3.2,34c0.3,0.9,1,1.5,1.8,1.8V40
	c0,0.6,0.4,1,1,1c0,0,0,0,0,0h11.7c0.2,0.3,0.4,0.6,0.7,0.8c0.8,1,1.5,2,2.1,3.2H14c-0.6,0-1,0.4-1,1c0,0,0,0,0,0v7H9.8
	c-0.6-1.6-2.3-2.4-3.8-1.8S3.6,53.4,4.2,55s2.3,2.4,3.8,1.8c0.9-0.3,1.5-1,1.8-1.8H14c0.6,0,1-0.4,1-1c0,0,0,0,0,0v-7h6.3
	c0.5,1.6,0.7,3.3,0.7,5h20c0-3.6,1.3-7.1,3.5-10H50v10c0,0.6,0.4,1,1,1c0,0,0,0,0,0h4.2c0.6,1.6,2.3,2.4,3.8,1.8
	c1.6-0.6,2.4-2.3,1.8-3.8c-0.6-1.6-2.3-2.4-3.8-1.8c-0.9,0.3-1.5,1-1.8,1.8H52V41c0-0.6-0.4-1-1-1c0,0,0,0,0,0h-3.9
	c2.6-3.6,4.4-7.7,5.4-12H57v2.2c-1.6,0.6-2.4,2.3-1.8,3.8c0.6,1.6,2.3,2.4,3.8,1.8c1.6-0.6,2.4-2.3,1.8-3.8c-0.3-0.9-1-1.5-1.8-1.8
	V27c0-0.6-0.4-1-1-1c0,0,0,0,0,0h-5.2c0.1-1,0.2-2,0.2-3c0-3.1-0.7-6.2-2-9h7c0.6,0,1-0.4,1-1c0,0,0,0,0,0V7.8
	c1.6-0.6,2.4-2.3,1.8-3.8S58.6,1.6,57,2.2S54.6,4.4,55.2,6c0.3,0.9,1,1.5,1.8,1.8V12h-7.1C43.8,2.1,30.9-1,21,5.1
	c-1.5,0.9-2.8,2-4,3.2V5C17,4.4,16.6,4,16,4C16,4,16,4,16,4z M37,49h-2v-2h-2v-2h-2v2h-2v2h-2v-2h2v-2h2v-2h2v2h2v2h2V49z M32,6
	c9.4,0,17,7.6,17,17s-7.6,17-17,17s-17-7.6-17-17S22.6,6,32,6z"/>
</svg>
