<?xml version="1.0" encoding="utf-8"?>
<!-- Generator: Adobe Illustrator 22.1.0, SVG Export Plug-In . SVG Version: 6.00 Build 0)  -->
<svg version="1.1" id="Layer_1" xmlns="http://www.w3.org/2000/svg" xmlns:xlink="http://www.w3.org/1999/xlink" x="0px" y="0px"
	 viewBox="0 0 100 97" style="enable-background:new 0 0 100 97;" xml:space="preserve">
<g id="Layer_2_1_">
</g>
<g id="Layer_1_1_">
	<g>
		<path d="M87.9,66.8c-2.6,0.9-7,1.9-11.8,2.9c-1.8,2.7-4.9,5-9.8,5.7c-1.1,0.2-2.4,0.3-3.8,0.3c-3.4,0-7.3-0.5-11.7-1
			c-0.3,0-0.6-0.1-0.9-0.1c-1-0.1-1.9-0.9-2-2c-0.1-1.4,1.1-2.5,2.4-2.3c0.3,0,0.7,0.1,1,0.1c5.7,0.6,11,1.3,14.4,0.7
			c6.3-1,8.2-4.8,7.8-8c-0.3-2.6-2.1-5.2-5.2-5c-4.4,0.2-9.6-0.3-14.6-0.8C48,56.7,42,56.2,37.8,56.8c-2.3,0.3-6.4,1.8-10.5,3.5
			c-1,0.4-2.9,1.2-2.9,1.2L6,66.8c-1.6,0.5-2.7,1.9-2.7,3.6v16.5c0,2.2,1.9,3.9,4.1,3.8l17-1.4c8.5,3,19,6.3,25.1,6.8
			c12.4,1,36.9-13.1,43.8-17.7C100.3,73.9,95.6,64.2,87.9,66.8z"/>
		<path d="M54.2,52.6c4.1,0.4,8.3,0.8,12,0.8c0.6,0,1.3,0,1.9,0c0.1,0,0.3,0,0.5,0c5.1,0,9.2,3.9,9.7,9.4c0.1,0.6,0.1,1.1,0,1.7
			c4.5-1,6.8-1.6,8.1-2.1c1.4-0.5,2.7-0.7,4.1-0.7h0.2c0.4-1.3,0.6-2.6,0.6-4c0-6.8-5.1-12.3-11.7-13c-0.6-5.2-5-9.2-10.3-9.2
			c-1,0-1.9,0.2-2.8,0.4V24.4c3.5-0.9,8.3-2.8,11.8-6.6c4.5-4.9,5.6-11.7,5.9-14.9c0.1-1-0.8-1.8-1.8-1.7c-3.2,0.6-9.8,2.3-14.3,7.2
			c-1.8,2-3.1,4.3-4,6.5c-0.9-2.3-2.1-4.6-4-6.5C55.6,3.5,49,1.8,45.8,1.2c-1-0.2-1.9,0.6-1.8,1.7c0.3,3.3,1.4,10,5.9,14.9
			c3.5,3.8,8.4,5.7,11.8,6.6v11.1c-0.6-0.1-1.3-0.2-1.9-0.2c-5.1,0-9.3,3.6-10.2,8.4c-0.1,0-0.2,0-0.3,0c-5.3,0-9.8,3.5-11.3,8.3
			c1.2-0.1,2.6-0.2,4.1-0.2C45.8,51.8,50,52.2,54.2,52.6z"/>
	</g>
</g>
</svg>
