<?xml version="1.0" encoding="utf-8"?>
<!-- Generator: Adobe Illustrator 22.1.0, SVG Export Plug-In . SVG Version: 6.00 Build 0)  -->
<svg version="1.1" id="Layer_1" xmlns="http://www.w3.org/2000/svg" xmlns:xlink="http://www.w3.org/1999/xlink" x="0px" y="0px"
	 viewBox="0 0 100 99.8" style="enable-background:new 0 0 100 99.8;" xml:space="preserve">
<g>
	<g>
		<path d="M59.2,76.7c-3.2-0.8-6.6,1.2-7.4,4.4l-0.1,0.3c-1.3,5.9-4.9,11-9.9,14.3c0.8,0.3,1.7,0.6,2.4,0.8
			c8.7,2,17.3-3.3,19.6-11.8l0.1-0.4C64.8,80.8,62.7,77.5,59.2,76.7z"/>
		<path d="M51.7,62.6c1.6-0.2,3.2-0.2,5.2,0l1.3,0.2l0.2-2.3v-0.1c0,0,0-0.3,0.2-1.1l0.4-1.4l-1.4-0.2c-1.4-0.2-2.8-0.3-4-0.3
			c-2.7,0-5.1,0.4-7.4,1.4c-6.8,2.9-8.7,10.3-10.3,16.8c-0.6,2-1,4-1.7,5.7c-1.8,4.8-5.6,7.4-10.3,7.4c-1.2,0-2.6-0.2-3.9-0.6
			c-5.8-1.6-9.8-6.8-12.3-10.7c-4.8-9.7-1.2-20.6,2.9-30.9c4.2-10.8,9.2-21.8,19.3-27.8c7.7-4.6,18.3-4.9,31.3-0.9
			c6,1.8,11.2,4.2,15.4,7.2l1.1,0.8l2.7-4.6l-1-0.7c-5.4-3.8-12.2-6.8-20.6-8.9c-11.2-2.9-21.8-2.3-30.3,1.8
			C18.4,18.4,12.7,28.7,8.3,38.3C2.1,52-3.6,66.6,2.8,79.5c0.1,0.2,0.1,0.3,0.2,0.4c0.1,0.1,0.2,0.3,0.3,0.4
			C7.4,86.6,14.4,94,23.8,94c0.7,0,1.3,0,2-0.1c10.9-1.2,13.6-10.8,15.9-19.1l0.4-1.6C43.9,66.7,46.9,63.5,51.7,62.6z"/>
		<path d="M95.7,34.6c-1.3-2.1-3-4.1-5-6.1L89.2,27l-2.1,5.3l0.7,0.8c3.7,3.9,5.9,8.3,6.8,13.2c0.9,5.2-0.9,10.7-4.9,14.7
			c-2.3,2.3-5.3,3.4-9.3,3.4c-1.3,0-2.9-0.1-4.4-0.4l-1-0.2l-0.4,1c-0.3,0.8-0.8,1.7-1.1,2.3l-0.9,1.6l1.8,0.3c2,0.4,4,0.6,5.8,0.6
			c6.7,0,12-2.7,16-7.9C102.3,53.4,100.3,41.8,95.7,34.6z"/>
		<path d="M73,63.5l16.1-41l1.3-3.4l5.8-14.6c0.1-0.1,0-0.3-0.1-0.4l-1.7-1.2C94.2,2.7,94,2.7,93.9,3L87,14.6l-1.7,2.9L61.7,57
			c-0.3,0.6-0.9,1.7-1.2,2.7c-0.2,0.8-0.4,1.4-0.6,2l-0.2,1.1L58,71.3c0,0,0,0,0,0.1c-0.1,1.1,0.6,2.6,1.4,2.9l3.6,2
			c0.9,0.4,2.1,0.2,2.9-0.7c0,0,0,0,0-0.1l4.2-6.6c0.2-0.2,0.6-0.9,1-1.7c0.6-1,1.1-2.2,1.4-3.1C72.8,64,72.9,63.7,73,63.5z"/>
	</g>
	<circle cx="20.1" cy="70.8" r="6.6"/>
	<circle cx="26.5" cy="49" r="6.6"/>
	<circle cx="39.2" cy="30.3" r="6.6"/>
	<circle cx="60.4" cy="30.3" r="6.6"/>
</g>
</svg>
