<?xml version="1.0" encoding="utf-8"?>
<!-- Generator: Adobe Illustrator 22.1.0, SVG Export Plug-In . SVG Version: 6.00 Build 0)  -->
<svg version="1.1" id="Layer_1" xmlns="http://www.w3.org/2000/svg" xmlns:xlink="http://www.w3.org/1999/xlink" x="0px" y="0px"
	 viewBox="0 0 64 64.4" style="enable-background:new 0 0 64 64.4;" xml:space="preserve">
<title>Biomass Energy</title>
<g>
	<path d="M61.9,17.2v3.4H45.8v-3.4c0-0.6,0.5-1.1,1.1-1.1h1.1v-5.7c0-0.6,0.5-1.1,1.1-1.1c0.6,0,1.1,0.5,1.1,1.1v5.7h6.9v-5.7
		c0-0.6,0.5-1.1,1.1-1.1s1.1,0.5,1.1,1.1v5.7h1.1C61.4,16.1,61.9,16.6,61.9,17.2z M45.8,24.1c0,4,2.9,7.4,6.9,8v26.5
		c0,1.9-1.5,3.4-3.4,3.4h-23c-1.9,0-3.4-1.5-3.4-3.4v-1.2c3.2-0.2,6.2-1.5,8.6-3.5c3.3-2.9,5.2-7.1,5.2-11.5
		c-0.1-4.7,1.4-9.3,4.4-13c0.4-0.5,0.3-1.2-0.2-1.6c-0.3-0.2-0.6-0.3-1-0.2c-0.4,0.1-9.1,2.4-18.1,15.2C12.6,30,3.9,27.7,3.5,27.6
		c-0.6-0.2-1.2,0.2-1.4,0.8c-0.1,0.3,0,0.7,0.2,1c2.9,3.7,4.5,8.3,4.4,13.1c0,7.8,6,14.3,13.8,14.9v1.2c0,3.2,2.6,5.7,5.7,5.7h23
		c3.2,0,5.7-2.6,5.7-5.7V32.1c4-0.6,6.9-4,6.9-8V23H45.8V24.1z M17.2,17.2h-6.1c-0.3,1.5-0.5,3-0.6,4.6h6.6
		C17.1,20.3,17.1,18.7,17.2,17.2z M23.9,28.7c0-1.3,0-2.6,0-4c0-0.2,0-0.4,0-0.6h-4.6c0,0.2,0,0.4,0,0.6c0,1.4,0,2.7,0,4H23.9z
		 M23.8,17.2h-4.4c0,1.5-0.1,3-0.1,4.6h4.6C23.9,20.2,23.9,18.7,23.8,17.2z M23.5,10.3h-3.6c-0.1,1.4-0.2,3-0.3,4.6h4.2
		C23.7,13.3,23.6,11.8,23.5,10.3z M26.3,24.7c0,1.4,0,2.7,0,4h6.1c0.3-0.2,0.5-0.4,0.8-0.5c0-1.4-0.1-2.8-0.1-4.1h-6.8
		C26.2,24.3,26.3,24.5,26.3,24.7z M22.2,0c-0.3,0-0.7,0-1,0c-0.5,2.6-0.9,5.3-1.1,8h3.3C23.1,5.4,22.7,2.7,22.2,0z M26.2,21.8h6.6
		c-0.2-1.6-0.4-3.1-0.6-4.6h-6.1C26.2,18.7,26.2,20.3,26.2,21.8z M18.1,4.7C18.3,3.2,18.4,2,18.6,1c-1.9,1.3-3.6,3.7-5,7.1h4.1
		C17.8,6.9,17.9,5.7,18.1,4.7z M17.5,10.3h-4.8c-0.5,1.5-0.9,3-1.2,4.6h5.7C17.3,13.3,17.4,11.8,17.5,10.3z M17.1,28.7
		c0-1.3,0-2.7,0-4c0-0.2,0-0.4,0-0.6h-6.8c-0.1,1.3-0.1,2.7-0.1,4.1c0.3,0.2,0.5,0.3,0.8,0.5H17.1z M25.6,8h4.1
		c-1.4-3.3-3.1-5.8-5-7.1c0.2,1,0.4,2.2,0.6,3.7C25.4,5.7,25.5,6.9,25.6,8L25.6,8z M21.7,38.9c0.7-0.9,1.3-1.6,2-2.4
		c0.1-1.7,0.2-3.6,0.2-5.5h-4.4c0.1,2,0.1,3.8,0.2,5.5C20.3,37.3,21,38.1,21.7,38.9z M14,31c1,0.8,2.1,1.8,3.2,2.9
		c0-1-0.1-1.9-0.1-2.9H14z M26,14.9h5.7c-0.3-1.6-0.7-3.1-1.2-4.6h-4.8C25.9,11.8,26,13.3,26,14.9z M26.1,34
		c1.1-1.1,2.2-2.1,3.2-2.9h-3.1C26.1,32,26.1,33,26.1,34L26.1,34z"/>
</g>
</svg>
