<?xml version="1.0" encoding="utf-8"?>
<!-- Generator: Adobe Illustrator 22.1.0, SVG Export Plug-In . SVG Version: 6.00 Build 0)  -->
<svg version="1.1" id="Layer_1" xmlns="http://www.w3.org/2000/svg" xmlns:xlink="http://www.w3.org/1999/xlink" x="0px" y="0px"
	 viewBox="0 0 100 100.2" style="enable-background:new 0 0 100 100.2;" xml:space="preserve">
<g>
	<path d="M61,58.6c0,1.6-1.7,3.1-3.3,3.1H42.8c-1.6,0-2.4-1.5-2.4-3.1v-7.2H0.9v38.5c0,5.1,0.3,5.4,5.4,5.4h87.8
		c5.1,0,4.9-0.3,4.9-5.4V51.4H61L61,58.6L61,58.6z"/>
	<path d="M40.5,16.3h19v10.3h7.3v-9.9c0-3.3-3.3-6.2-6.6-6.2H40.3c-3.3,0-5.7,2.9-5.7,6.2v9.9h5.9V16.3z"/>
	<path d="M94.2,28H73.8h-7.6h-6.4H40.7h-6.4h-28c-5.1,0-5.4,0.9-5.4,6v14.5h98.1V34C99.1,28.9,99.3,28,94.2,28z"/>
	<path d="M54.6,57.3c1.1,0,2-0.3,2-1.3v-4.5H43.4V56c0,1.1,1.5,1.3,2.6,1.3H54.6z"/>
</g>
</svg>
