<?xml version="1.0" encoding="utf-8"?>
<!-- Generator: Adobe Illustrator 22.1.0, SVG Export Plug-In . SVG Version: 6.00 Build 0)  -->
<svg version="1.1" id="Layer_1" xmlns="http://www.w3.org/2000/svg" xmlns:xlink="http://www.w3.org/1999/xlink" x="0px" y="0px"
	 viewBox="0 0 100 100.2" style="enable-background:new 0 0 100 100.2;" xml:space="preserve">
<title>10 стройка</title>
<g>
	<polygon points="21.9,47.7 13.7,55.9 21.9,64.1 	"/>
	<polygon points="11.2,93.6 19.3,85.5 11.2,77.4 	"/>
	<polygon points="21.9,67.4 13.7,75.6 21.9,83.8 	"/>
	<polygon points="11.2,37.9 11.2,54.1 19.3,46 	"/>
	<polygon points="11.2,57.6 11.2,73.9 19.3,65.8 	"/>
	<path d="M21.9,24.6V15h41.6v8h-5v12h18V23h-5v-8h5.8v-3H21.9V5l0,0V2H11.2v3l0,0v7H0.5v3h11.8L21.9,24.6z M68.5,23h-2v-8h2V23z"/>
	<polygon points="21.9,27.9 13.7,36.1 21.9,44.3 	"/>
	<polygon points="11.2,18.1 11.2,34.4 19.3,26.2 	"/>
	<path d="M99.5,52v-3h-16V32h-3v17h-20v-5h-3v5.9l0,0V72h-20V57.1h-3v16.1l0,0V95H21.9v-7.8L14.1,95H1.5v3h88v-3h-6V75h16v-3h-16V52
		H99.5z M64.5,56h12v12h-12V56z M41.5,79h12v12h-12V79z M64.5,91V79h12v12H64.5z"/>
	<rect x="92.6" y="95" width="5.9" height="3"/>
</g>
</svg>
