<?xml version="1.0" encoding="utf-8"?>
<!-- Generator: Adobe Illustrator 22.1.0, SVG Export Plug-In . SVG Version: 6.00 Build 0)  -->
<svg version="1.1"
	 id="Layer_1" xmlns:cc="http://creativecommons.org/ns#" xmlns:dc="http://purl.org/dc/elements/1.1/" xmlns:inkscape="http://www.inkscape.org/namespaces/inkscape" xmlns:rdf="http://www.w3.org/1999/02/22-rdf-syntax-ns#" xmlns:sodipodi="http://sodipodi.sourceforge.net/DTD/sodipodi-0.dtd" xmlns:svg="http://www.w3.org/2000/svg"
	 xmlns="http://www.w3.org/2000/svg" xmlns:xlink="http://www.w3.org/1999/xlink" x="0px" y="0px" viewBox="0 0 32 31.6"
	 style="enable-background:new 0 0 32 31.6;" xml:space="preserve">
<g transform="translate(0,-1020.3622)">
	<path d="M16,1023.6c-5.9,0-16,8-16,8s10.1,8,16,8s16-8,16-8S21.9,1023.6,16,1023.6z M15.4,1027.9h1.2v0.9c0.5,0.2,0.9,0.5,1.1,1
		l-1.1,0.5c-0.1-0.2-0.4-0.4-0.8-0.3c-0.3,0.1-0.5,0.3-0.4,0.6c0,0.2,0.3,0.5,0.7,0.4h0h0c0.5,0,0.9,0.2,1.2,0.5s0.4,0.6,0.5,1l0,0
		c0.2,0.9-0.4,1.7-1.2,1.9v0.9h-1.2v-0.9c-0.5-0.2-0.9-0.5-1.1-1l1.1-0.5c0.1,0.2,0.4,0.4,0.8,0.3c0.3-0.1,0.5-0.3,0.4-0.6
		c0-0.2-0.1-0.3-0.2-0.3c-0.1-0.1-0.1-0.1-0.4-0.1h0c-0.9,0.1-1.8-0.5-1.9-1.4c-0.2-0.9,0.4-1.7,1.2-1.9L15.4,1027.9z"/>
	<path d="M6.8,1037.4v7.7c0,0,5.5,2.5,8.5,2.5c3.4,0.1,9.9-2.5,9.9-2.5v-7.7c-3,1.7-6.3,3.3-9.2,3.3
		C13.1,1040.7,9.7,1039.1,6.8,1037.4z"/>
	<path d="M2.1,1034.5c-0.3,0-0.6,0.3-0.6,0.6c0,0,0,0,0,0v3.5l-1.5,2.2v6.2h4.3v-6.2l-1.5-2.2v-3.5
		C2.8,1034.8,2.5,1034.5,2.1,1034.5C2.2,1034.5,2.2,1034.5,2.1,1034.5z M2.2,1041.2c0.4,0,0.7,0.3,0.7,0.7c0,0,0,0,0,0
		c0,0.4-0.3,0.7-0.7,0.7c0,0,0,0,0,0c-0.4,0-0.7-0.3-0.7-0.7c0,0,0,0,0,0C1.4,1041.5,1.7,1041.2,2.2,1041.2z"/>
</g>
</svg>
