<?xml version="1.0" encoding="utf-8"?>
<!-- Generator: Adobe Illustrator 22.1.0, SVG Export Plug-In . SVG Version: 6.00 Build 0)  -->
<svg version="1.1" id="Layer_1" xmlns="http://www.w3.org/2000/svg" xmlns:xlink="http://www.w3.org/1999/xlink" x="0px" y="0px"
	 viewBox="0 0 48 48.6" style="enable-background:new 0 0 48 48.6;" xml:space="preserve">
<g>
	<path d="M24,12.1c-6.6,0-11.9,5.4-11.9,11.9S17.4,35.9,24,35.9c6.6,0,11.9-5.4,11.9-11.9S30.6,12.1,24,12.1z M24.6,30.4v2.2h-1.3
		v-2.1c-1.2,0-2.5-0.4-3.2-0.9l0.5-1.4c0.8,0.5,1.8,0.9,3,0.9c1.5,0,2.5-0.9,2.5-2c0-1.1-0.8-1.9-2.4-2.5c-2.1-0.8-3.4-1.8-3.4-3.6
		c0-1.7,1.2-3,3.1-3.4v-2.1h1.3v2c1.2,0,2.1,0.4,2.7,0.7l-0.5,1.4c-0.4-0.3-1.3-0.7-2.6-0.7c-1.6,0-2.2,1-2.2,1.8
		c0,1.1,0.8,1.6,2.6,2.4c2.1,0.9,3.2,2,3.2,3.8C27.9,28.5,26.7,30,24.6,30.4z"/>
	<path d="M20,37.9h-4.9v-3.2C12,32.2,10,28.3,10,24c0-3.7,1.5-7.1,3.9-9.7H6.1c-0.1,0-0.3,0.1-0.3,0.3v23.3H0.9
		c-0.1,0-0.2,0.1-0.2,0.2c0,0.1,0,0.2,0.1,0.3l9.6,9.6c0,0,0.1,0.1,0.2,0.1c0.1,0,0.1,0,0.2-0.1l9.6-9.6c0.1-0.1,0.1-0.2,0.1-0.3
		S20.1,37.9,20,37.9z"/>
	<path d="M47.3,9.6l-9.6-9.6c-0.1-0.1-0.3-0.1-0.4,0l-9.6,9.6c-0.1,0.1-0.1,0.2-0.1,0.3s0.1,0.2,0.2,0.2h4.9v3.2
		C36,15.8,38,19.7,38,24c0,3.7-1.5,7.1-3.9,9.7h7.8c0.1,0,0.3-0.1,0.3-0.3V10.1h4.9c0.1,0,0.2-0.1,0.2-0.2
		C47.4,9.8,47.3,9.7,47.3,9.6z"/>
</g>
</svg>
