<?xml version="1.0" encoding="utf-8"?>
<!-- Generator: Adobe Illustrator 22.1.0, SVG Export Plug-In . SVG Version: 6.00 Build 0)  -->
<svg version="1.1" xmlns="http://www.w3.org/2000/svg" xmlns:xlink="http://www.w3.org/1999/xlink" x="0px" y="0px"
	 viewBox="0 0 100 100.2" style="enable-background:new 0 0 100 100.2;" xml:space="preserve">
<g id="Layer_2">
</g>
<g id="Layer_1">
	<g>
		<path d="M17.7,88.8c-1.1,1.5-0.7,3.6,0.9,4.6l5.5,3.5c1.6,1,3.7,0.5,4.6-1.1l16.6-29l-5.2-9L17.7,88.8z"/>
		<path d="M85.6,12.5l-2.2-1.4c-0.3-0.2-0.7-0.1-0.9,0.2c0,0-10.9,16.2-13.5,20.1c-0.3,0.5-0.9,0.6-1.4,0.3
			c-0.3-0.2-0.6-0.4-0.8-0.5c-0.5-0.3-0.6-0.9-0.3-1.4L79.2,9.2c0.2-0.3,0.1-0.7-0.2-0.9l-2.2-1.4c-0.3-0.2-0.7-0.1-0.9,0.2
			c0,0-10.9,16.2-13.5,20.1c-0.3,0.5-0.9,0.6-1.4,0.3c-0.3-0.2-0.6-0.4-0.8-0.5c-0.5-0.3-0.6-0.9-0.3-1.4L72.6,5
			c0.2-0.3,0.1-0.7-0.2-0.9l-2.2-1.4c-0.3-0.2-0.7-0.1-0.9,0.2L55.6,23.2l0,0L54,25.7c-1.7,2.6-2.3,5.6-1.8,8.2l1.2,5.4l-1.7,2.3
			l4.4,6.1l2.8-4.8l5.5-1.1c2.5-0.5,5-2.4,6.7-5l1.6-2.5l0,0l12.9-20.9C85.9,13,85.8,12.7,85.6,12.5z"/>
		<path d="M44.1,39.9l-23.8-37c-1.6-2.5-10,8.3-4,20.2s9.3,18.5,11.4,22.6c2.1,4.1,7,5.9,11.4,3.8l1.8-0.8l27,47.1
			c1,1.7,3.1,2.2,4.7,1.2l5.7-3.7c1.6-1,2-3.2,0.9-4.8L44.1,39.9z"/>
	</g>
</g>
</svg>
