<?xml version="1.0" encoding="utf-8"?>
<!-- Generator: Adobe Illustrator 22.1.0, SVG Export Plug-In . SVG Version: 6.00 Build 0)  -->
<svg version="1.1" id="Layer_1" xmlns="http://www.w3.org/2000/svg" xmlns:xlink="http://www.w3.org/1999/xlink" x="0px" y="0px"
	 viewBox="0 0 100 100" style="enable-background:new 0 0 100 100;" xml:space="preserve">
<g>
	<rect x="21.4" y="62.8" width="8.2" height="20.5"/>
	<rect x="37.7" y="62.8" width="8.2" height="20.5"/>
	<rect x="54.1" y="62.8" width="8.2" height="20.5"/>
	<rect x="70.5" y="62.8" width="8.2" height="20.5"/>
	<rect x="13.2" y="52.6" width="73.6" height="8.2"/>
	<rect x="13.2" y="85.3" width="73.6" height="8.2"/>
	<path d="M78.5,50.5c0-0.7,0.1-1.4,0.1-2c0-14.4-10.7-26.3-24.5-28.3V7.6c0-2.3-1.8-4.1-4.1-4.1s-4.1,1.8-4.1,4.1v12.6
		c-13.9,2-24.5,13.9-24.5,28.3c0,0.7,0.1,1.4,0.1,2H78.5z"/>
</g>
</svg>
