<?xml version="1.0" encoding="utf-8"?>
<!-- Generator: Adobe Illustrator 22.1.0, SVG Export Plug-In . SVG Version: 6.00 Build 0)  -->
<svg version="1.1"
	 id="Layer_1" xmlns:cc="http://creativecommons.org/ns#" xmlns:dc="http://purl.org/dc/elements/1.1/" xmlns:inkscape="http://www.inkscape.org/namespaces/inkscape" xmlns:rdf="http://www.w3.org/1999/02/22-rdf-syntax-ns#" xmlns:sodipodi="http://sodipodi.sourceforge.net/DTD/sodipodi-0.dtd" xmlns:svg="http://www.w3.org/2000/svg"
	 xmlns="http://www.w3.org/2000/svg" xmlns:xlink="http://www.w3.org/1999/xlink" x="0px" y="0px" viewBox="0 0 16.9 17"
	 style="enable-background:new 0 0 16.9 17;" xml:space="preserve">
<g transform="translate(0,-280.06665)">
	<path d="M6.6,280.1c-0.2,0-0.3,0.1-0.3,0.3v2h0.6v-2C6.9,280.2,6.8,280.1,6.6,280.1z M9.5,280.1c-0.2,0-0.3,0.1-0.3,0.3v2h0.6v-2
		C9.7,280.2,9.6,280.1,9.5,280.1z M4.9,282.9c-0.2,0-0.3,0.1-0.3,0.3v1.1c0,0.2,0.1,0.3,0.3,0.3h6.2c0.2,0,0.3-0.1,0.3-0.3v-1.1
		c0-0.2-0.1-0.3-0.3-0.3H4.9z M5.2,285.2v0.8c0,1.1,0.9,2,2,2h1.7c1.1,0,2-0.9,2-2v-0.8H5.2z M7.2,288.6v1.2
		c0.3,0.2,0.5,0.3,0.7,0.6c0.3-0.3,0.6-0.5,1-0.7v-1.1H7.2z M2.7,289.7c-0.2,0-0.3,0.1-0.3,0.3c0,2,1.6,3.7,3.7,3.7h0.6v-0.3
		c0-1,0.3-1.9,0.9-2.6c-0.7-0.7-1.6-1.1-2.6-1.1H2.7z M10.9,289.7c-2,0-3.7,1.6-3.7,3.7v3.4c0,0.2,0.1,0.3,0.3,0.3h1.1
		c0.2,0,0.3-0.1,0.3-0.3v-3.1H10c2,0,3.7-1.6,3.7-3.7c0-0.2-0.1-0.3-0.3-0.3L10.9,289.7z M4.5,291c0.2,0.4,0.5,0.7,0.8,0.8
		c0.3,0.2,0.1,0.7-0.3,0.5c-0.5-0.2-0.8-0.6-1.1-1c-0.1-0.2,0-0.4,0.2-0.4C4.4,290.8,4.4,290.9,4.5,291L4.5,291z M12.1,291.3
		c-0.3,0.4-0.6,0.8-1.1,1c-0.3,0.2-0.6-0.3-0.3-0.5c0.3-0.2,0.6-0.5,0.8-0.8c0-0.1,0.1-0.1,0.2-0.1
		C12.1,290.8,12.2,291.1,12.1,291.3L12.1,291.3z"/>
</g>
</svg>
