<?xml version="1.0" encoding="utf-8"?>
<!-- Generator: Adobe Illustrator 22.1.0, SVG Export Plug-In . SVG Version: 6.00 Build 0)  -->
<svg version="1.1" id="Layer_1" xmlns="http://www.w3.org/2000/svg" xmlns:xlink="http://www.w3.org/1999/xlink" x="0px" y="0px"
	 viewBox="0 0 100 100" style="enable-background:new 0 0 100 100;" xml:space="preserve">
<g>
	<circle cx="38.8" cy="28.6" r="3.3"/>
	<circle cx="24.2" cy="43.8" r="1.9"/>
	<path d="M57.9,69.8c2.7-1.8,6.3-4.4,11.4-7.9c0.4-0.3,1.1-0.7,2.3-1.3c1.2-0.7,2.6-1,4-1h24.6V37.8H73c-2.1,0-4.4,0.3-6.9,0.9
		c-2.5,0.6-4.7,1.5-6.4,2.7L34.2,60c-1.1,0.9-1.7,1.9-1.7,3.2c0,0.7,0.1,1.4,0.4,2.2c0.3,0.8,0.7,1.6,1.2,2.3
		c0.5,0.7,1.1,1.2,1.7,1.6c0.6,0.4,1.2,0.6,1.9,0.6c0.8,0,1.5-0.3,2.2-0.8L40,69l12.3-7.5h4.1l-15.3,9.3c-1,0.7-2.2,1.1-3.6,1.1
		c-1.8,0-3.4-0.8-4.7-2.5c-1.1-1.4-1.9-2.9-2.1-4.5H7.5c-2.6,0-4.5,0.6-5.7,1.9c-1.3,1.3-1.9,2.6-1.9,4s0.6,2.6,1.9,3.8
		C3,75.8,5,76.4,7.6,76.4h35.7c1.3,0,2.4-0.1,3.5-0.4s2.5-0.9,4.3-1.8C52.8,73.2,55.1,71.7,57.9,69.8z"/>
	<g>
		<circle cx="10.5" cy="29" r="3.3"/>
		<path d="M5.9,47.2v-9.7h0.8v26.1c0.3,0,0.5,0,0.8,0h2.8v-15h0.8v15h3.6V37.5h0.8v9.7c0,2,2.5,2,2.5,0v-9.9c0-2.2-1.3-4.3-3.8-4.3
			H6.9c-2.3,0-3.7,1.9-3.7,4.2v10C3.3,49.1,5.9,49.1,5.9,47.2z"/>
	</g>
	<path d="M21.4,54.6v-5.8h0.5v14.7h2.2v-8.1h0.5v8.1h2.2V48.8h0.5v5.8c0,1.2,1.5,1.2,1.5,0v-5.9c0-1.3-0.8-2.6-2.3-2.6h-4.4
		c-1.4,0-2.2,1.1-2.2,2.5v6C19.9,55.8,21.4,55.8,21.4,54.6z"/>
	<g>
		<path d="M32.3,45.7l2.5-8.6h0.7l-4.4,15.2h4.1v5.2l3-2.2v-3.1h1.2v2.2l6.3-4.6L42,37.2h0.7l2.5,8.5c0.6,1.9,3.1,1.1,2.6-0.9
			L45,35.5c-0.3-1-1.3-2.9-3.6-2.9H36c-2.3,0-3.2,1.9-3.5,2.9l-2.8,9.3C29.1,46.8,31.6,47.6,32.3,45.7z"/>
	</g>
</g>
</svg>
