<?xml version="1.0" encoding="utf-8"?>
<!-- Generator: Adobe Illustrator 22.1.0, SVG Export Plug-In . SVG Version: 6.00 Build 0)  -->
<svg version="1.1" xmlns="http://www.w3.org/2000/svg" xmlns:xlink="http://www.w3.org/1999/xlink" x="0px" y="0px"
	 viewBox="0 0 100 100.4" style="enable-background:new 0 0 100 100.4;" xml:space="preserve">
<g id="Layer_2">
</g>
<g id="Layer_1">
	<g>
		<g>
			<path d="M80.4,33.8H74v28.7H18.9V29.2h37.6v-6.4H17c-2.5,0-4.5,2-4.5,4.5v41.5h67.9V33.8z"/>
		</g>
		<g>
			<path d="M80.4,72.1H12.5l-8.8,19c-1.4,3,0.8,6.4,4.1,6.4H85c3.3,0,5.5-3.4,4.1-6.4L80.4,72.1z M56.2,90.5H36.7
				c-0.6,0-1-0.6-0.9-1.1l1.1-4.3c0.1-0.4,0.5-0.7,0.9-0.7h17.3c0.4,0,0.8,0.3,0.9,0.7l1.1,4.3C57.3,90,56.8,90.5,56.2,90.5z"/>
		</g>
		<g>
			<path d="M95.5,2.5H84.4c-0.6,0-1.1,0.5-1.1,1.1v11.1c0,0.6,0.5,1.1,1.1,1.1h11.1c0.6,0,1.1-0.5,1.1-1.1V3.6
				C96.6,3,96.1,2.5,95.5,2.5z"/>
		</g>
		<g>
			<path d="M70.3,18.7h9.1c0.6,0,1.1-0.5,1.1-1.1V8.5c0-0.6-0.5-1.1-1.1-1.1h-9.1c-0.6,0-1.1,0.5-1.1,1.1v9.1
				C69.2,18.2,69.7,18.7,70.3,18.7z"/>
		</g>
		<g>
			<path d="M91.8,18.7h-7.4c-0.6,0-1.1,0.5-1.1,1.1v7.4c0,0.6,0.5,1.1,1.1,1.1h7.4c0.6,0,1.1-0.5,1.1-1.1v-7.4
				C92.9,19.2,92.4,18.7,91.8,18.7z"/>
		</g>
		<g>
			<path d="M79.3,21.6h-7.4c-0.6,0-1.1,0.5-1.1,1.1v7.4c0,0.6,0.5,1.1,1.1,1.1h7.4c0.6,0,1.1-0.5,1.1-1.1v-7.4
				C80.4,22.1,79.9,21.6,79.3,21.6z"/>
		</g>
		<g>
			<path d="M60.7,31.2h6.2c0.6,0,1.1-0.5,1.1-1.1V24c0-0.6-0.5-1.1-1.1-1.1h-6.2c-0.6,0-1.1,0.5-1.1,1.1v6.2
				C59.6,30.7,60.1,31.2,60.7,31.2z"/>
		</g>
		<g>
			<path d="M59.4,41.3h5c0.6,0,1.1-0.5,1.1-1.1v-5c0-0.6-0.5-1.1-1.1-1.1h-5c-0.6,0-1.1,0.5-1.1,1.1v5
				C58.3,40.8,58.8,41.3,59.4,41.3z"/>
		</g>
		<g>
			<path d="M51.1,35.9c-0.6,0-1.1,0.5-1.1,1.1v3.2c0,0.6,0.5,1.1,1.1,1.1h3.2c0.6,0,1.1-0.5,1.1-1.1V37c0-0.6-0.5-1.1-1.1-1.1H51.1z
				"/>
		</g>
	</g>
</g>
</svg>
