<?xml version="1.0" encoding="utf-8"?>
<!-- Generator: Adobe Illustrator 22.1.0, SVG Export Plug-In . SVG Version: 6.00 Build 0)  -->
<svg version="1.1" id="Layer_1" xmlns="http://www.w3.org/2000/svg" xmlns:xlink="http://www.w3.org/1999/xlink" x="0px" y="0px"
	 viewBox="0 0 400 400" style="enable-background:new 0 0 400 400;" xml:space="preserve">
<g>
	<path d="M209.4,105c0-4.9-4.4-9-9.3-9h-15.9c-4.9,0-9.1,4.1-9.1,9v98H49.3v66.5c0,33.6,9.2,55.9,26.9,66.9
		c17.8,11,37.4,16.6,58.5,16.6c10.6-0.5,106.4,0,117.4,0c20.7-1,39.5-7,56.5-18c17-11.1,25.5-32.9,25.5-65.5v-66.5H209.4V105z"/>
	<path d="M65.7,163.6c19.2-15.5,22.6-43.6,7.5-63.3c-2.2-2.9-4.7-5.4-7.4-7.6c-19.2,15.5-22.6,43.6-7.5,63.3
		C60.5,158.9,63,161.4,65.7,163.6z"/>
	<path d="M58.7,167c-14-18.3-39.2-23-58.7-12c0.2,0.3,0.4,0.6,0.6,0.9c14,18.3,39.2,23,58.7,12C59.1,167.6,58.9,167.3,58.7,167z"/>
	<path d="M50.6,195.8h69.1c0-18.7-15.5-34.6-34.6-34.6S50.6,177.1,50.6,195.8z"/>
	<path d="M295.4,195.8c12.4-49.9,21.8-104.8,26.7-160.1c-8.6-1-20.9-2.2-31.4-1.1c-3.7,50.2-5.6,108.2-13,161.2H295.4z"/>
	<path d="M318.9,136.6c-4.4,10.3-10.6,20.1-13.4,30.1c-2.8,10-4.8,19.8-6.8,29.1h8.3c25.3-46.8,49-94.4,70.9-144.4
		c-7.5-3.8-14.5-7.8-22.1-11.4c-10.2,19.7-16.8,42.3-24.9,64.7C327.2,114.9,323.4,126,318.9,136.6z"/>
	<path d="M348,47.5c-2.2-0.7-6.6-5.5-8.3-2.3c-9.7,33.6-25.4,63.8-29.1,101.9C324.8,115.7,335.5,80.8,348,47.5z"/>
	<path d="M382.1,97.4c-7.5,12.3-17.1,23.2-25.4,35.1c-8,11.5-16.9,21.8-25.4,33.3c-6.8,9.2-13.4,20.7-19.8,30h22.1
		c18.5-27,39.3-52.6,65.5-72.5C395.1,112.9,390.5,103.5,382.1,97.4z"/>
	<path d="M130.9,195.8h35.9v-53.1c-26-61.4-55.2-104.8-67.6-100c-13.8,5.4-1.9,68.5,26.7,141.3C127.5,188.1,129.2,192.7,130.9,195.8
		z M138,153c3.3-16.9,8-28.5,10.4-25.9c2.4,2.6,1.7,18.4-1.7,35.3c-3.3,16.9-8,28.5-10.4,25.9C133.9,185.8,134.7,169.9,138,153z
		 M117.1,139.1c-2.4-2.6-1.9-17.3,1.2-32.9c3.1-15.6,7.5-26.1,10-23.5c2.4,2.6,1.9,17.3-1.2,32.9
		C123.9,131.2,119.5,141.7,117.1,139.1z"/>
	<path d="M245.1,152.4c0.2,11,1.2,27.7,2.4,43.8c0,0,0.1-0.3,0.1-0.3h25.3c1.6-14.6,3.2-31.9,4.4-43.8c2.9-29.4-7.2-33.8-16.1-33.8
		C252.3,118.2,244.6,125.6,245.1,152.4z"/>
	<path d="M235.9,164c2.5-21.4-6.4-24.6-14-24.6c-1.8,0-3.1,0.5-5.2,1.2v53.6c0,0.8,0.1,1.6,0,1.6h15.4
		C233.4,184.4,234.9,172.7,235.9,164z"/>
	<polygon points="263,113.7 270.7,78.3 262.4,87.3 266.3,62.1 258.1,76.2 251.4,37.9 248.5,66.6 241.7,56.8 255.2,113.7 	"/>
	<path d="M224.1,136.9l12.2-18.8l-9.8,4.6l7.9-16.4l-7.9,5.9l2.3-19l-7.7,13.4L216.7,80v57.4C220.9,136.2,224.1,136.9,224.1,136.9z"
		/>
</g>
</svg>
