<?xml version="1.0" encoding="utf-8"?>
<!-- Generator: Adobe Illustrator 22.1.0, SVG Export Plug-In . SVG Version: 6.00 Build 0)  -->
<svg version="1.1" xmlns="http://www.w3.org/2000/svg" xmlns:xlink="http://www.w3.org/1999/xlink" x="0px" y="0px"
	 viewBox="0 0 100 100.2" style="enable-background:new 0 0 100 100.2;" xml:space="preserve">
<g id="Layer_2">
</g>
<g id="Layer_1">
	<g>
		<path d="M5273.1,2400.1v-2c0-2.8-5-4-9.7-4s-9.7,1.3-9.7,4v2c0,1.8,0.7,3.6,2,4.9l5,4.9c0.3,0.3,0.4,0.6,0.4,1v6.4
			c0,0.4,0.2,0.7,0.6,0.8l2.9,0.9c0.5,0.1,1-0.2,1-0.8v-7.2c0-0.4,0.2-0.7,0.4-1l5.1-5C5272.4,2403.7,5273.1,2401.9,5273.1,2400.1z
			 M5263.4,2400c-4.8,0-7.4-1.3-7.5-1.8l0,0c0.1-0.5,2.7-1.8,7.5-1.8s7.3,1.3,7.5,1.8C5270.7,2398.7,5268.2,2400,5263.4,2400z"/>
		<path d="M5268.4,2410.3c-0.6,0-1,0.4-1,1s0.4,1,1,1h4.3c0.6,0,1-0.4,1-1s-0.4-1-1-1H5268.4z"/>
		<path d="M5272.7,2413.7h-4.3c-0.6,0-1,0.4-1,1s0.4,1,1,1h4.3c0.6,0,1-0.4,1-1C5273.7,2414.1,5273.3,2413.7,5272.7,2413.7z"/>
		<path d="M5272.7,2417h-4.3c-0.6,0-1,0.4-1,1s0.4,1,1,1h4.3c0.6,0,1-0.4,1-1C5273.7,2417.5,5273.3,2417,5272.7,2417z"/>
	</g>
	<g>
		<circle cx="17.6" cy="39.2" r="8.9"/>
		<path d="M23.5,50.3l-4,10l-0.9-7.2h0.6c0.3,0,0.6-0.3,0.6-0.6v-1.9c0-0.3-0.3-0.6-0.6-0.6H16c-0.3,0-0.6,0.3-0.6,0.6v1.9
			c0,0.3,0.3,0.6,0.6,0.6h0.6l-0.9,7.2l-4-10c-4,1-7.2,4.3-7.7,8.6l-0.8,6.3c-0.3,2.1,1.3,3.9,3.4,4.1c0.4,0,0.7,0.1,1.1,0.1
			c6.9,0.5,13.9,0.5,20.8-0.1c2.1-0.2,3.6-2,3.3-4.1L31,58.9C30.6,54.6,27.5,51.3,23.5,50.3z"/>
		<circle cx="84" cy="65.1" r="8.9"/>
		<path d="M89.8,76.2l-4,10L85,78.9h0.6c0.3,0,0.6-0.3,0.6-0.6v-1.9c0-0.3-0.3-0.6-0.6-0.6h-3.2c-0.3,0-0.6,0.3-0.6,0.6v1.9
			c0,0.3,0.3,0.6,0.6,0.6H83l-0.9,7.2l-4-10c-4,1-7.2,4.3-7.7,8.6L69.7,91c-0.3,2.1,1.3,3.9,3.4,4.1c0.4,0,0.7,0.1,1.1,0.1
			c6.9,0.5,13.9,0.5,20.8-0.1c2.1-0.2,3.6-2,3.3-4.1l-0.8-6.3C97,80.5,93.9,77.1,89.8,76.2z"/>
		<circle cx="84" cy="13.4" r="8.9"/>
		<path d="M73,43.4c0.4,0,0.7,0.1,1.1,0.1c7,0.5,13.9,0.5,20.8-0.1c2.1-0.2,3.6-2,3.3-4.1L97.5,33c-0.5-4.3-3.7-7.6-7.7-8.6l-4,10
			L85,27.2h0.6c0.3,0,0.6-0.3,0.6-0.6v-1.9c0-0.3-0.3-0.6-0.6-0.6h-3.2c-0.3,0-0.6,0.3-0.6,0.6v1.9c0,0.3,0.3,0.6,0.6,0.6H83
			l-0.9,7.2l-4-10c-4,1-7.2,4.3-7.7,8.6l-0.8,6.3C69.4,41.4,71,43.2,73,43.4z"/>
		<path d="M53.1,30.4h10.5c1.3,0,2.3-1,2.3-2.3s-1-2.3-2.3-2.3H50.8c-1.3,0-2.3,1-2.3,2.3v23.5H38c-1.3,0-2.3,1-2.3,2.3
			s1,2.3,2.3,2.3h10.5v23.5c0,1.3,1,2.3,2.3,2.3h12.8c1.3,0,2.3-1,2.3-2.3s-1-2.3-2.3-2.3H53.1V30.4z"/>
	</g>
</g>
</svg>
