<?xml version="1.0" encoding="utf-8"?>
<!-- Generator: Adobe Illustrator 22.1.0, SVG Export Plug-In . SVG Version: 6.00 Build 0)  -->
<svg version="1.1" id="Layer_1" xmlns="http://www.w3.org/2000/svg" xmlns:xlink="http://www.w3.org/1999/xlink" x="0px" y="0px"
	 viewBox="0 0 110 110.1" style="enable-background:new 0 0 110 110.1;" xml:space="preserve">
<g>
	<polygon points="20,22 20,56.2 10,46.2 10,22 	"/>
	<polygon points="34,22 34,45.2 31.4,42.6 28,39.2 28,64.2 24,60.2 24,22 	"/>
	<path d="M57,9.5c0-1.7-1.3-3-3-3c-1,0-1.9,0.5-2.5,1.3C51,7.3,50.4,7.1,49.7,7c-0.6-1.2-1.8-2-3.2-2c-0.9,0-1.7,0.3-2.3,0.9
		C43.4,5.3,42.5,5,41.5,5c-2.2,0-4.1,1.6-4.4,3.8c-0.5-0.2-1-0.3-1.6-0.3c-2.5,0-4.5,2-4.5,4.5c0,0.5,0.1,0.9,0.2,1.4
		c-0.7,0.4-1.2,1.2-1.2,2.1c0,0.2,0,0.4,0.1,0.6c-0.6,0.2-1.1,0.8-1.1,1.4c0,0.8,0.7,1.5,1.5,1.5c0.7,0,1.2-0.5,1.4-1.1
		c0.2,0,0.4,0.1,0.6,0.1c1.1,0,1.9-0.6,2.3-1.6c0.2,0,0.5,0.1,0.7,0.1c0.9,0,1.7-0.3,2.4-0.7c1.1,1.3,2.8,2.2,4.6,2.2
		c2.7,0,4.9-1.7,5.7-4.1c0.5,0.4,1.1,0.6,1.8,0.6c0.9,0,1.7-0.4,2.2-1c1.2-0.1,2.3-1,2.6-2.1C56.1,12,57,10.9,57,9.5z"/>
	<path d="M80,44v25L55,44v25L30,44v25L5,44v61h100V69L80,44z M24,93H10V81h14V93z M43,93H29V81h14V93z M62,93H48V81h14V93z M81,93
		H67V81h14V93z M100,93H86V81h14V93z"/>
</g>
</svg>
