<?xml version="1.0" encoding="utf-8"?>
<!-- Generator: Adobe Illustrator 22.1.0, SVG Export Plug-In . SVG Version: 6.00 Build 0)  -->
<svg version="1.1" id="Layer_1" xmlns="http://www.w3.org/2000/svg" xmlns:xlink="http://www.w3.org/1999/xlink" x="0px" y="0px"
	 viewBox="0 0 100 100" style="enable-background:new 0 0 100 100;" xml:space="preserve">
<g id="Layer_2_1_">
</g>
<g id="Layer_1_1_">
	<g>
		<path d="M5271.9,2686v-2.2c0-3.1-5-4.5-9.7-4.5s-9.7,1.5-9.7,4.5v2.2c0,2,0.7,4,2,5.5l5,5.5c0.3,0.3,0.4,0.7,0.4,1.1v7.2
			c0,0.4,0.2,0.8,0.6,0.9l2.9,1c0.5,0.1,1-0.2,1-0.9v-8.1c0-0.4,0.2-0.8,0.4-1.1l5.1-5.6C5271.1,2690.1,5271.9,2688,5271.9,2686z
			 M5262.1,2685.9c-4.8,0-7.4-1.5-7.5-2l0,0c0.1-0.6,2.7-2,7.5-2s7.3,1.5,7.5,2C5269.5,2684.4,5267,2685.9,5262.1,2685.9z"/>
		<path d="M5267.1,2697.5c-0.6,0-1,0.4-1,1.1c0,0.7,0.4,1.1,1,1.1h4.3c0.6,0,1-0.4,1-1.1c0-0.7-0.4-1.1-1-1.1H5267.1z"/>
		<path d="M5271.5,2701.3h-4.3c-0.6,0-1,0.4-1,1.1c0,0.7,0.4,1.1,1,1.1h4.3c0.6,0,1-0.4,1-1.1
			C5272.5,2701.7,5272,2701.3,5271.5,2701.3z"/>
		<path d="M5271.5,2705h-4.3c-0.6,0-1,0.4-1,1.1c0,0.7,0.4,1.1,1,1.1h4.3c0.6,0,1-0.4,1-1.1C5272.5,2705.5,5272,2705,5271.5,2705z"
			/>
	</g>
	<g>
		<path d="M29.6,35.4c-1.1-1.2-2.2-2.4-3.3-3.6L2.2,59c-1.2,1.3-1.2,3.6,0,4.9l2.1,2.4c1.2,1.3,3.2,1.3,4.4,0l24.2-27.2
			C31.8,37.9,30.8,36.7,29.6,35.4z"/>
		<path d="M32.8,31.8c7,7.9,12.9,16.1,17.5,23.8c0.8,1.3,2.7,0.8,2.8-0.9c0.4-7.4-3.5-17.4-10.5-26.6l2.1-2.4c1.2-1.3,1.2-3.6,0-4.9
			l-2.1-2.4c-1.2-1.3-3.2-1.3-4.4,0l-2.1,2.4C27.9,13,19,8.6,12.4,9c-1.5,0.1-2,2.2-0.8,3.1C18.6,17.3,25.9,24,32.8,31.8z"/>
		<path d="M63.2,53.5l5.3-11c0.3-0.7,0.1-1.7-0.6-2l-6-3.4c-0.9-0.4-1.9,0.2-1.9,1.3l0.8,14.4C60.8,54.3,62.7,54.7,63.2,53.5z"/>
		<path d="M37.5,56.1c-0.7-0.3-1.5,0.1-1.7,0.8l-2.4,7.1c-0.4,1,0.4,2.1,1.4,1.9l12.6-2.4c1.3-0.2,1.5-2.2,0.3-2.8L37.5,56.1z"/>
		<path d="M89.8,20.3l-10.8,8.6c-0.8,0.6-1.3,1.5-1.6,2.5l-5.6,22.2c-0.2,0.9-0.7,1.7-1.3,2.2l-9,8.4c-0.5,0.3-0.9,0.6-1.4,0.9
			l-27,9.4c-0.5,0.1-0.9,0.1-1.3,0.2l-12.6-0.4c-0.8,0-1.6,0.6-1.8,1.5l-2.1,7.6c-0.4,1.3,0.5,2.7,1.8,2.7h75.1c2.3,0,4.1-2,4.1-4.6
			V24.1C96.2,20.3,92.4,18.1,89.8,20.3z"/>
	</g>
</g>
</svg>
