<?xml version="1.0" encoding="utf-8"?>
<!-- Generator: Adobe Illustrator 22.1.0, SVG Export Plug-In . SVG Version: 6.00 Build 0)  -->
<svg version="1.1" id="Layer_1" xmlns="http://www.w3.org/2000/svg" xmlns:xlink="http://www.w3.org/1999/xlink" x="0px" y="0px"
	 viewBox="0 0 512 640" style="enable-background:new 0 0 512 640;" xml:space="preserve">
<path d="M80,432c-13.3,0-24,10.7-24,24s10.7,24,24,24s24-10.7,24-24C104,442.8,93.2,432,80,432z M80,464c-4.4,0-8-3.6-8-8s3.6-8,8-8
	s8,3.6,8,8C88,460.4,84.4,464,80,464C80,464,80,464,80,464z"/>
<rect x="216" y="64" width="16" height="16"/>
<rect x="216" y="192" width="16" height="16"/>
<path d="M320,32H184v112h136V32z M248,88c0,4.4-3.6,8-8,8h-32c-4.4,0-8-3.6-8-8V56c0-4.4,3.6-8,8-8h32c4.4,0,8,3.6,8,8V88z M272,128
	h-16v-16h16V128z M304,128h-16v-16h16V128z"/>
<path d="M320,160H184v112h136V160z M248,216c0,4.4-3.6,8-8,8h-32c-4.4,0-8-3.6-8-8v-32c0-4.4,3.6-8,8-8h32c4.4,0,8,3.6,8,8V216z
	 M272,256h-16v-16h16V256z M304,256h-16v-16h16V256z"/>
<path d="M320,288H184v112h136V288z M248,344c0,4.4-3.6,8-8,8h-32c-4.4,0-8-3.6-8-8v-32c0-4.4,3.6-8,8-8h32c4.4,0,8,3.6,8,8V344z
	 M272,384h-16v-16h16V384z M304,384h-16v-16h16V384z"/>
<polygon points="56,232 56,192 72,192 72,232 74.6,232 88,198.5 88,176 40,176 40,198.5 53.4,232 "/>
<rect x="216" y="320" width="16" height="16"/>
<rect x="56" y="248" width="16" height="128"/>
<path d="M336,272h136V160H336V272z M440,240h16v16h-16V240z M408,240h16v16h-16V240z M352,184c0-4.4,3.6-8,8-8h32c4.4,0,8,3.6,8,8
	v32c0,4.4-3.6,8-8,8h-32c-4.4,0-8-3.6-8-8V184z"/>
<path d="M40,392v48h3.4c8.8-20.2,32.4-29.5,52.6-20.7c9.2,4,16.6,11.4,20.7,20.7H136v-12.3L93.1,392H40z"/>
<rect x="184" y="416" width="288" height="24"/>
<rect x="368" y="192" width="16" height="16"/>
<rect x="440" y="456" width="32" height="24"/>
<rect x="368" y="320" width="16" height="16"/>
<path d="M336,400h136V288H336V400z M440,368h16v16h-16V368z M408,368h16v16h-16V368z M352,312c0-4.4,3.6-8,8-8h32c4.4,0,8,3.6,8,8
	v32c0,4.4-3.6,8-8,8h-32c-4.4,0-8-3.6-8-8V312z"/>
<rect x="368" y="64" width="16" height="16"/>
<rect x="312" y="456" width="32" height="24"/>
<rect x="184" y="456" width="32" height="24"/>
<rect x="152" y="432" width="16" height="8"/>
<path d="M336,32v112h136V32H336z M400,88c0,4.4-3.6,8-8,8h-32c-4.4,0-8-3.6-8-8V56c0-4.4,3.6-8,8-8h32c4.4,0,8,3.6,8,8V88z M424,128
	h-16v-16h16V128z M456,128h-16v-16h16V128z"/>
</svg>
