<?xml version="1.0" encoding="utf-8"?>
<!-- Generator: Adobe Illustrator 22.1.0, SVG Export Plug-In . SVG Version: 6.00 Build 0)  -->
<svg version="1.1" xmlns="http://www.w3.org/2000/svg" xmlns:xlink="http://www.w3.org/1999/xlink" x="0px" y="0px"
	 viewBox="0 0 100 125" style="enable-background:new 0 0 100 125;" xml:space="preserve">
<g id="Layer_2">
</g>
<g id="Layer_1">
	<g>
		<path d="M5273.1,2410.7v-2c0-2.8-5-4-9.7-4s-9.7,1.3-9.7,4v2c0,1.8,0.7,3.6,2,4.9l5,4.9c0.3,0.3,0.4,0.6,0.4,1v6.4
			c0,0.4,0.2,0.7,0.6,0.8l2.9,0.9c0.5,0.1,1-0.2,1-0.8v-7.2c0-0.4,0.2-0.7,0.4-1l5.1-5C5272.4,2414.3,5273.1,2412.5,5273.1,2410.7z
			 M5263.4,2410.6c-4.8,0-7.4-1.3-7.5-1.8l0,0c0.1-0.5,2.7-1.8,7.5-1.8s7.3,1.3,7.5,1.8C5270.7,2409.3,5268.2,2410.6,5263.4,2410.6z
			"/>
		<path d="M5268.4,2420.9c-0.6,0-1,0.4-1,1s0.4,1,1,1h4.3c0.6,0,1-0.4,1-1s-0.4-1-1-1H5268.4z"/>
		<path d="M5272.7,2424.3h-4.3c-0.6,0-1,0.4-1,1s0.4,1,1,1h4.3c0.6,0,1-0.4,1-1C5273.7,2424.7,5273.3,2424.3,5272.7,2424.3z"/>
		<path d="M5272.7,2427.6h-4.3c-0.6,0-1,0.4-1,1s0.4,1,1,1h4.3c0.6,0,1-0.4,1-1C5273.7,2428.1,5273.3,2427.6,5272.7,2427.6z"/>
	</g>
	<g>
		<path d="M30.9,49.8c-1.1-1.1-2.2-2.1-3.3-3.2L3.4,70.8c-1.2,1.2-1.2,3.2,0,4.4l2.1,2.1c1.2,1.2,3.2,1.2,4.4,0l24.2-24.2
			C33.1,52,32,50.9,30.9,49.8z"/>
		<path d="M34.1,46.6c7,7,12.9,14.3,17.5,21.2c0.8,1.2,2.7,0.7,2.8-0.8c0.4-6.6-3.5-15.5-10.5-23.7l2.1-2.1c1.2-1.2,1.2-3.2,0-4.4
			l-2.1-2.1c-1.2-1.2-3.2-1.2-4.4,0l-2.1,2.1c-8.2-7-17.1-10.9-23.7-10.5c-1.5,0.1-2,2-0.8,2.8C19.9,33.7,27.1,39.6,34.1,46.6z"/>
		<path d="M64.5,65.9l5.3-9.8c0.3-0.6,0.1-1.5-0.6-1.8l-6-3c-0.9-0.4-1.9,0.2-1.9,1.2l0.8,12.8C62.1,66.6,63.9,67,64.5,65.9z"/>
		<path d="M38.8,68.2c-0.7-0.3-1.5,0.1-1.7,0.7l-2.4,6.3c-0.4,0.9,0.4,1.9,1.4,1.7l12.6-2.1c1.3-0.2,1.5-2,0.3-2.5L38.8,68.2z"/>
		<path d="M91,36.3L80.2,44c-0.8,0.5-1.3,1.3-1.6,2.2L73,66c-0.2,0.8-0.7,1.5-1.3,2l-9,7.5c-0.5,0.3-0.9,0.5-1.4,0.8l-27,8.4
			c-0.5,0.1-0.9,0.1-1.3,0.2l-12.6-0.4c-0.8,0-1.6,0.5-1.8,1.3l-2.1,6.8C16.1,93.8,17,95,18.3,95h75.1c2.3,0,4.1-1.8,4.1-4.1V39.7
			C97.5,36.3,93.7,34.4,91,36.3z"/>
	</g>
</g>
</svg>
