<?xml version="1.0" encoding="utf-8"?>
<!-- Generator: Adobe Illustrator 22.1.0, SVG Export Plug-In . SVG Version: 6.00 Build 0)  -->
<svg version="1.1" id="Layer_1" xmlns="http://www.w3.org/2000/svg" xmlns:xlink="http://www.w3.org/1999/xlink" x="0px" y="0px"
	 viewBox="0 0 265 372.5" style="enable-background:new 0 0 265 372.5;" xml:space="preserve">
<g>
	<path d="M144,97L144,97c0,11-20,11-20,0l0,0c-4-1-7-2-10-4c-5-4-9-9-9-16c0-5,6-7,11-7c4,0,10,2,10,7c0,2,1,3,2,4c3,3,9,3,12,0
		c1-1,2-2,2-4c0-1-1-2-2-3c-5-4-16-1-26-8c-5-4-9-9-9-15s4-12,9-15c3-2,6-4,10-5c1-9,19-9,20,0c3,1,7,3,10,5c5,3,8,9,8,15
		c0,10-20,10-20,0c0-2-1-3-2-4c-2-1-4-2-6-2s-4,1-6,2c-1,1-2,2-2,4c0,1,1,3,2,4c5,3,16,0,26,7c5,4,8,9,8,15c0,7-3,12-8,16
		C151,95,147,96,144,97z"/>
	<path d="M134,0C98,0,69,29,69,65c0,35,29,64,65,64s64-29,64-64C198,29,170,0,134,0z M134,8c-31,0-56,26-56,57s25,56,56,56
		s56-25,56-56S165,8,134,8z"/>
	<path d="M54,229v69H11V168L54,229z M49,231l-32-45v106h32V231z"/>
	<path d="M105,202v96c-14,0-29,0-43,0v-61L105,202z M99,214l-31,26v52c10,0,21,0,31,0V214z"/>
	<path d="M156,247v51c-15,0-29,0-43,0V195l3-3L156,247z M150,249l-32-44v87c11,0,22,0,32,0V249z"/>
	<path d="M207,211v87c-15,0-29,0-44,0v-40L207,211z M201,225l-32,35v32c11,0,21,0,32,0V225z"/>
	<path d="M257,156v142h-43v-95L257,156z M252,170l-32,35v87h32V170z"/>
	<polygon points="246,115 167,201 132,152 123,140 112,149 68,186 33,136 45,127 0,111 0,159 11,151 54,213 62,224 73,215 118,179 
		155,230 164,243 175,231 265,133 	"/>
</g>
</svg>
