<?xml version="1.0" encoding="utf-8"?>
<!-- Generator: Adobe Illustrator 22.1.0, SVG Export Plug-In . SVG Version: 6.00 Build 0)  -->
<svg version="1.1" id="Layer_1" xmlns="http://www.w3.org/2000/svg" xmlns:xlink="http://www.w3.org/1999/xlink" x="0px" y="0px"
	 viewBox="0 0 100 125" style="enable-background:new 0 0 100 125;" xml:space="preserve">
<g>
	<rect x="21.4" y="64.3" width="8.2" height="20.5"/>
	<rect x="37.7" y="64.3" width="8.2" height="20.5"/>
	<rect x="54.1" y="64.3" width="8.2" height="20.5"/>
	<rect x="70.5" y="64.3" width="8.2" height="20.5"/>
	<rect x="13.2" y="54.1" width="73.6" height="8.2"/>
	<rect x="13.2" y="86.8" width="73.6" height="8.2"/>
	<path d="M78.5,52c0-0.7,0.1-1.4,0.1-2c0-14.4-10.7-26.3-24.5-28.3V9.1C54.1,6.8,52.3,5,50,5c-2.3,0-4.1,1.8-4.1,4.1v12.6
		C32,23.7,21.4,35.6,21.4,50c0,0.7,0.1,1.4,0.1,2H78.5z"/>
</g>
</svg>
