<?xml version="1.0" encoding="utf-8"?>
<!-- Generator: Adobe Illustrator 22.1.0, SVG Export Plug-In . SVG Version: 6.00 Build 0)  -->
<svg version="1.1" id="Layer_1" xmlns="http://www.w3.org/2000/svg" xmlns:xlink="http://www.w3.org/1999/xlink" x="0px" y="0px"
	 viewBox="0 0 72 72.1" style="enable-background:new 0 0 72 72.1;" xml:space="preserve">
<g>
	<path d="M36,19.4c-13.8,0-25.1,11.2-25.1,25.1c0,13.8,11.2,25.1,25.1,25.1c13.8,0,25.1-11.2,25.1-25.1S49.8,19.4,36,19.4z
		 M44.1,57.8c-1.5,1.4-3.4,2.3-5.8,2.6c-0.2,0-0.3,0.2-0.3,0.3v3.6c0,0.2-0.1,0.3-0.3,0.3H35c-0.2,0-0.3-0.1-0.3-0.3v-3.5
		c0-0.2-0.1-0.3-0.3-0.3c-2.5-0.3-4.6-1.2-6.2-2.8c-1.5-1.4-2.3-3.4-2.5-6c0-0.2,0-0.6,0-0.9c0-0.2,0.1-0.3,0.3-0.3h5.5
		c0.2,0,0.3,0.1,0.3,0.3c0,1.7,0.5,3,1.3,3.8c0.9,0.8,2,1.2,3.3,1.2s2.3-0.3,2.9-1c0.7-0.7,1-1.6,1-2.8c0-1.1-0.3-2.1-1-2.8
		s-1.8-1.4-3.4-2c-3.1-1.1-5.4-2.4-6.9-3.8s-2.3-3.4-2.3-5.9c0-2.4,0.8-4.3,2.3-5.8c1.4-1.4,3.4-2.3,5.8-2.6c0.2,0,0.3-0.2,0.3-0.4
		v-3.9c0-0.2,0.2-0.4,0.4-0.4H38c0.2,0,0.4,0.2,0.4,0.4v3.9c0,0.2,0.1,0.3,0.3,0.4c2.3,0.4,4.2,1.4,5.5,3c1.3,1.6,2,3.6,2.1,6.1v0.1
		c0,0.3-0.2,0.5-0.5,0.5h-5.1c-0.2,0-0.4-0.2-0.4-0.4c-0.1-1.5-0.4-2.6-1-3.4c-0.7-0.9-1.6-1.4-2.8-1.4s-2.1,0.3-2.7,1
		c-0.6,0.7-0.9,1.6-0.9,2.8c0,1.1,0.3,2,0.9,2.7c0.6,0.7,1.8,1.4,3.5,2c3.1,1.2,5.4,2.5,6.9,3.9s2.3,3.3,2.3,5.8
		C46.4,54.3,45.6,56.3,44.1,57.8z"/>
	<path d="M70.4,21.6l-10.3-5.8c-0.4-0.2-0.7-0.7-0.7-1.2V6.3c0-0.2-0.2-0.4-0.4-0.4h-5.6C53.2,5.8,53,6,53,6.3V11
		c0,0.3-0.4,0.6-0.7,0.4L36.9,2.7c-0.6-0.3-1.3-0.3-1.9,0L1.5,21.6c-0.9,0.5-1.3,1.6-0.9,2.5c0.5,1,1.7,1.4,2.7,0.9L35.1,7.1
		c0.6-0.3,1.3-0.3,1.9,0L68.7,25c0.3,0.2,0.6,0.2,0.9,0.2c0.7,0,1.4-0.4,1.7-1.1C71.8,23.2,71.3,22.1,70.4,21.6z"/>
</g>
</svg>
