<?xml version="1.0" encoding="utf-8"?>
<!-- Generator: Adobe Illustrator 22.1.0, SVG Export Plug-In . SVG Version: 6.00 Build 0)  -->
<svg version="1.1" id="Layer_1" xmlns="http://www.w3.org/2000/svg" xmlns:xlink="http://www.w3.org/1999/xlink" x="0px" y="0px"
	 viewBox="0 0 100 100.2" style="enable-background:new 0 0 100 100.2;" xml:space="preserve">
<g>
	<path d="M97.2,65.7c0.2-0.3-0.1-0.7-0.4-0.4c-2.3,1.2-7.1,2.9-15.8,2.9c-0.4,0-15.2,0-15.4,0c-0.4,0-0.7,0-0.8-0.2
		c-0.1-0.1-0.1-0.4-0.1-0.8v-6.4c0-0.3-0.4-0.4-0.5-0.2c0,0-13.5,16.2-15.4,18.5c-0.1,0.2-0.1,0.4,0,0.5C50.7,82,64,98.2,64,98.2
		c0.2,0.2,0.7,0.1,0.7-0.2v-6.6c0-0.4,0.1-0.8,0.7-0.8c0,0,2,0,9.1,0c7,0,9.3-1.8,14.6-10.7L97.2,65.7z"/>
	<path d="M99.2,59c1.2-2.1,1-4.6-0.7-7.3l-8.9-15.5c-0.1-0.1-0.3-0.2-0.4-0.1l-19.1,11c-0.1,0.1-0.2,0.3-0.1,0.4l10,17.4
		c0.1,0.1,0.2,0.2,0.3,0.2C87.8,65.1,96.6,63.4,99.2,59z"/>
	<path d="M12.6,82.4c0.2,0.3,0.7,0.2,0.7-0.1c0.1-2.6,1-7.6,5.3-15.1c0-0.1,7.7-13.3,7.7-13.4c0.2-0.3,0.3-0.5,0.5-0.5
		c0.2,0,0.4,0.1,0.8,0.2l5.5,3.2c0.3,0.1,0.5-0.1,0.4-0.4c0,0-7.3-19.7-8.4-22.6c-0.1-0.2-0.3-0.3-0.5-0.3c-2.9,0.5-23.7,4-23.7,4
		c-0.3,0-0.4,0.5-0.1,0.7l5.8,3.3c0.3,0.2,0.7,0.4,0.3,1c0,0-1,1.6-4.6,7.9c-3.6,6-3.3,9,1.8,17.8L12.6,82.4z"/>
	<path d="M17.3,87.5c1.2,2.1,3.4,3.2,6.6,3.2h17.9c0.2,0,0.3-0.1,0.3-0.3V68.3c0-0.2-0.1-0.3-0.3-0.3h-20c-0.1,0-0.2,0.1-0.3,0.2
		C17.6,74.6,14.8,83,17.3,87.5z"/>
	<path d="M40.5,0c-0.3,0-0.4,0.4-0.2,0.7c2.3,1.4,6.1,4.7,10.4,12.2c0,0.1,7.7,13.3,7.7,13.4c0.2,0.3,0.3,0.5,0.2,0.8
		s-0.2,0.3-0.7,0.5l-5.5,3.2c-0.3,0.1-0.2,0.5,0.1,0.7c0,0,20.8,3.6,23.7,4c0.2,0,0.4-0.1,0.5-0.3c1.1-2.8,8.5-22.6,8.5-22.6
		c0.1-0.3-0.2-0.7-0.5-0.4L79,15.2c-0.3,0.2-0.7,0.3-1-0.2c0,0-1-1.7-4.6-7.9C70.2,1.2,67.4,0,57.2,0H40.5z"/>
	<path d="M33.8,1.5c-2.4,0-4.5,1.4-6.1,4.2l-8.9,15.5c-0.1,0.1,0,0.3,0.1,0.4l19.1,11c0.1,0.1,0.3,0,0.4-0.1l10-17.4
		c0.1-0.1,0.1-0.2,0-0.3C44.8,8.3,38.9,1.6,33.8,1.5z"/>
</g>
</svg>
