<?xml version="1.0" encoding="utf-8"?>
<!-- Generator: Adobe Illustrator 22.1.0, SVG Export Plug-In . SVG Version: 6.00 Build 0)  -->
<svg version="1.1" id="Layer_1" xmlns="http://www.w3.org/2000/svg" xmlns:xlink="http://www.w3.org/1999/xlink" x="0px" y="0px"
	 viewBox="0 0 97 97.5" style="enable-background:new 0 0 97 97.5;" xml:space="preserve">
<title>81</title>
<path d="M37.9,50c2.3,2.3,5,1.8,8.9,0.3l-8.7-8.7C36.3,44.4,35.7,47.8,37.9,50z"/>
<path d="M55.6,52.1l8.7,8.7c1.8-2.8,2.4-6.2,0.2-8.4C62.2,50.1,59.5,50.5,55.6,52.1z"/>
<path d="M51.9,10.8c-1.7-1.7-4-2.8-6.5-3.1L16.3,5c-1.5-0.1-2.9,0.4-4,1.4l-5.9,5.9c-1,1-1.6,2.5-1.4,4l2.7,29.1
	c0.2,2.5,1.3,4.7,3,6.5l41.6,41.6c1.9,1.9,5.1,1.9,7,0l34.1-34.1c1.9-1.9,1.9-5.1,0-7l0,0L51.9,10.8z M25.9,25.9
	c-2.6,2.6-6.9,2.6-9.5,0s-2.6-6.9,0-9.5s6.9-2.6,9.5,0l0,0C28.5,19,28.5,23.2,25.9,25.9z M68.6,72.2l-4.3-4.3
	C59.1,71.8,52.8,72,48.8,68l3.5-3.5c2.2,2.2,5.6,1.6,8.4-0.2L50.6,54.2c-5.2,2.3-11.4,4.3-16.3-0.6c-4-4-3.8-10.3,0.1-15.5l-4.3-4.3
	l3.5-3.5l4.3,4.3c5.2-3.9,11.6-4.1,15.5-0.1L50,37.9c-2.2-2.2-5.6-1.6-8.4,0.2l10.1,10.1C57,46,63.1,43.9,68,48.8
	c4,4,3.8,10.3-0.1,15.5l4.3,4.3L68.6,72.2z"/>
</svg>
