<?xml version="1.0" encoding="utf-8"?>
<!-- Generator: Adobe Illustrator 22.1.0, SVG Export Plug-In . SVG Version: 6.00 Build 0)  -->
<svg version="1.1" id="Layer_1" xmlns="http://www.w3.org/2000/svg" xmlns:xlink="http://www.w3.org/1999/xlink" x="0px" y="0px"
	 viewBox="0 0 91 90.8" style="enable-background:new 0 0 91 90.8;" xml:space="preserve">
<g>
	<g>
		<path d="M27,30.5c0.3,0.8,1.1,1.3,1.9,1.3c0.1,0,0.3,0,0.4,0l10.3-2.2L41,36c0.1,0.5,0.4,1,0.9,1.3c0.3,0.2,0.7,0.3,1.1,0.3
			c0.1,0,0.3,0,0.4,0l5.5-1.2c0.8-0.2,1.4-0.8,1.6-1.6L52,27l12.4-2.6c3-0.6,5-3.6,4.3-6.6c-0.2-0.7-0.7-1.3-1.4-1.5l-8.5-2.8
			c-0.3-0.1-0.7-0.1-1.1-0.1l-6.3,1.4l-1.2-5.9c-0.1-0.5-0.4-1-0.9-1.3s-1-0.4-1.5-0.3l-5.5,1.1c-0.8,0.2-1.4,0.8-1.6,1.6l-1.6,7.5
			l-6.2,1.4l-5.5-3.6c-0.5-0.3-1-0.4-1.5-0.3l-2.6,0.5c-0.6,0.1-1.1,0.5-1.4,1.1c-0.3,0.5-0.3,1.2-0.1,1.7L27,30.5z M44.5,12
			l2.1-0.4l0.8,4l-3.9,0.9L44.5,12z M31.4,22.7c0.5,0.3,1,0.4,1.6,0.3l25.1-5.6l6.5,2.1c-0.2,0.4-0.6,0.7-1,0.8l-10.9,2.3
			c-0.1-0.8-0.8-1.6-1.6-1.7c-1.1-0.2-2.2,0.5-2.4,1.6l-1.9,10.2l-2.1,0.4l-1.8-8.8c-0.2-1.1-1.3-1.8-2.4-1.6
			c-1.1,0.2-1.8,1.3-1.6,2.4l0.1,0.3l-8.7,1.8L27,19.8L31.4,22.7z"/>
		<path d="M88.5,54.1c0.4,0,0.8-0.1,1.2-0.4c0.9-0.6,1.2-1.9,0.5-2.9c-7.7-11.1-19-18.9-32.1-22c-1.1-0.3-2.2,0.4-2.5,1.5
			s0.4,2.2,1.5,2.5c12,2.9,22.6,10.1,29.6,20.3C87.3,53.8,87.9,54.1,88.5,54.1z"/>
		<path d="M1.4,53.9c0.4,0.2,0.8,0.4,1.2,0.4c0.7,0,1.3-0.3,1.7-0.9c5.3-7.7,12.6-13.8,21.1-17.5c1-0.5,1.5-1.7,1-2.7
			s-1.7-1.5-2.7-1C14.5,36.1,6.6,42.7,0.9,51C0.3,51.9,0.5,53.2,1.4,53.9z"/>
		<path d="M85.4,76c-0.9,1.6-2,3.4-2.3,4c-1,2.2-2.8,3.5-4.8,3.5c0,0,0,0-0.1,0c-2.2,0-3.4-2.2-4.5-4c-0.2-0.3-0.4-0.6-0.6-1
			c0,0.1-0.1,0.2-0.1,0.2c-0.5,1.3-1,2.5-2,3c-1.9,1.1-4.9-0.7-5.8-1.2c-0.6-0.4-2.4-1.5-2.3-3.3c0.2-2.6,2-3.5,2.8-3.9
			c0,0,0.1,0,0.1-0.1c0-0.3-0.1-0.4-0.1-0.5c-0.1,0-0.3,0-0.4,0c-1.6,0-3.1-0.2-4.6-0.5C60,72,59,71.8,58.2,71.1
			c-1.7-1.6-1.6-4.1,0.4-6.8c1.5-2.1,3.8-5.4,6.1-8.6c1.5-2.1,3-4.2,4.2-6c-5.5-3.9-11.9-6.4-18.7-7.2c-0.1,1.8,0.7,3,1.7,4.4
			c1.1,1.6,2.5,3.7,2.2,6.7c-0.5,4.4-4.9,6-8.2,7.1c-2.6,0.9-5,2.2-7.1,3.8c-0.9,0.7-1.9,1.5-2.1,2.5c-0.5,1.6,0.8,3.6,2.1,5.6
			l0.2,0.3c1.6,2.4,2.6,8.3,0.4,12.2h44.4c1.1,0,2.1-0.9,2.1-2.1c0-0.1,0-0.1,0-0.2s0-0.1,0-0.2C86,80.5,85.8,78.2,85.4,76z"/>
		<path d="M5.3,79.3c-0.1,1.1-0.1,2.1-0.1,3.2c0,0.1,0,2.7,2.1,2.7h7.6c-0.2-3,1.1-5.8,2.5-7.4l0.2-0.2c0.3-0.3,0.7-0.8,0.8-1.1
			c0,0-0.1-0.1-0.3-0.1c-0.5-0.2-1.1-0.1-1.8,0h-0.2C13.4,76.8,8.5,77.4,5.3,79.3C5.4,79.2,5.3,79.2,5.3,79.3z"/>
		<path d="M6,74.4c3.3-1.3,7.1-1.8,9.5-2.1h0.2c1.1-0.1,2.4-0.2,3.6,0.2c1.8,0.6,3,2.1,3.1,3.8c0.1,1.8-1,3.1-1.8,4l-0.2,0.2
			c-0.1,0.1-1.8,2.2-1.5,4.7h15.7c0.1-0.4,0.2-0.8,0.6-1.1c2.1-2,1.5-7.1,0.4-8.9l-0.2-0.3c-1.6-2.5-3.7-5.6-2.6-9
			c0.6-2.1,2.2-3.5,3.6-4.5c2.5-1.9,5.2-3.3,8.1-4.4c2.5-0.9,5.4-1.9,5.6-3.7c0.2-1.5-0.4-2.4-1.5-4s-2.6-3.8-2.4-7
			c-0.2,0-0.3,0-0.5,0c-0.1,0-0.1,0-0.2,0c-10.7,0-20.8,4.2-28.4,11.7C11.4,59.6,7.6,66.7,6,74.4z"/>
		<path d="M67.6,76.9c-0.1,0-0.1,0.1-0.2,0.1c0.5,0.3,1.1,0.6,1.6,0.8c0.1-0.3,0.2-0.6,0.4-0.8c0.8-1.8,1.5-3.6,3.4-3.7
			c2.3-0.1,3.5,2.1,4.6,4c0.3,0.6,0.8,1.5,1.2,1.9c0.3-0.1,0.6-0.5,0.8-1.1c0.4-0.8,1.5-2.6,3-5.1c0.7-1.2,1.4-2.3,1.6-2.7
			c0,0,0,0,0.1-0.1c-1.9-6-5.2-11.5-9.8-16.1c-0.7-0.7-1.4-1.3-2.1-1.9C71,54,69.5,56,68.1,58c-2.3,3.3-4.7,6.6-6.1,8.7
			c-0.5,0.6-0.7,1.1-0.7,1.4c0.1,0,0.3,0.1,0.4,0.1c1.2,0.2,2.5,0.4,3.7,0.4c0.7,0,1.6,0,2.5,0.5c1.3,0.7,2,2.1,2.2,4.1
			C70.2,75.7,68.4,76.6,67.6,76.9z"/>
	</g>
</g>
</svg>
