<?xml version="1.0" encoding="utf-8"?>
<!-- Generator: Adobe Illustrator 22.1.0, SVG Export Plug-In . SVG Version: 6.00 Build 0)  -->
<svg version="1.1" id="Layer_1" xmlns="http://www.w3.org/2000/svg" xmlns:xlink="http://www.w3.org/1999/xlink" x="0px" y="0px"
	 viewBox="0 0 36 35.7" style="enable-background:new 0 0 36 35.7;" xml:space="preserve">
<title>Монтажная область 69</title>
<path d="M26.9,5.9h-4V1c0-0.5-0.4-1-1-1c-0.5,0-1,0.4-1,1c0,0,0,0,0,0v5H15V1c0-0.5-0.4-1-1-1c-0.5,0-1,0.4-1,1v5h-4
	c-0.5,0-1,0.4-1,1v9.9c0,3.8,3.1,6.9,6.9,6.9h2v1.3c0,2,1.2,3.8,3.1,4.6c1.1,0.4,1.9,1.5,1.8,2.7v2.3c0,0.5,0.4,1,1,1s1-0.4,1-1
	c0,0,0,0,0,0v-2.3c0-2-1.2-3.8-3.1-4.6c-1.1-0.4-1.9-1.5-1.8-2.7v-1.3h2c3.8,0,6.9-3.1,6.9-6.9V6.9C27.9,6.4,27.5,6,26.9,5.9z
	 M21.6,13.7l-4.3,6.4c-0.2,0.3-0.5,0.4-0.8,0.4c-0.1,0-0.3,0-0.4-0.1c-0.4-0.2-0.7-0.6-0.6-1.1l0.6-3.5h-0.9c-0.3,0-0.6-0.1-0.8-0.4
	c-0.2-0.3-0.2-0.6-0.1-0.9l1.4-4.7c0.1-0.4,0.5-0.7,0.9-0.7h2.9c0.3,0,0.6,0.1,0.8,0.4c0.2,0.3,0.2,0.6,0.1,0.9l-0.6,1.7h0.9
	c0.4,0,0.7,0.2,0.9,0.5C21.8,13,21.8,13.4,21.6,13.7z"/>
</svg>
