<?xml version="1.0" encoding="utf-8"?>
<!-- Generator: Adobe Illustrator 22.1.0, SVG Export Plug-In . SVG Version: 6.00 Build 0)  -->
<svg version="1.1" id="Layer_1" xmlns="http://www.w3.org/2000/svg" xmlns:xlink="http://www.w3.org/1999/xlink" x="0px" y="0px"
	 viewBox="0 0 448.6 454" style="enable-background:new 0 0 448.6 454;" xml:space="preserve">
<path d="M48.6,404c-13.3,0-24,10.7-24,24s10.7,24,24,24s24-10.7,24-24C72.6,414.8,61.8,404,48.6,404z M48.6,436c-4.4,0-8-3.6-8-8
	s3.6-8,8-8s8,3.6,8,8S53,436,48.6,436L48.6,436z"/>
<rect x="184.6" y="36" width="16" height="16"/>
<rect x="184.6" y="164" width="16" height="16"/>
<path d="M288.6,4h-136v112h136V4z M216.6,60c0,4.4-3.6,8-8,8h-32c-4.4,0-8-3.6-8-8V28c0-4.4,3.6-8,8-8h32c4.4,0,8,3.6,8,8V60z
	 M240.6,100h-16V84h16V100z M272.6,100h-16V84h16V100z"/>
<path d="M288.6,132h-136v112h136V132z M216.6,188c0,4.4-3.6,8-8,8h-32c-4.4,0-8-3.6-8-8v-32c0-4.4,3.6-8,8-8h32c4.4,0,8,3.6,8,8V188
	z M240.6,228h-16v-16h16V228z M272.6,228h-16v-16h16V228z"/>
<path d="M288.6,260h-136v112h136V260z M216.6,316c0,4.4-3.6,8-8,8h-32c-4.4,0-8-3.6-8-8v-32c0-4.4,3.6-8,8-8h32c4.4,0,8,3.6,8,8V316
	z M240.6,356h-16v-16h16V356z M272.6,356h-16v-16h16V356z"/>
<polygon points="24.6,204 24.6,164 40.6,164 40.6,204 43.2,204 56.6,170.5 56.6,148 8.6,148 8.6,170.5 22,204 "/>
<rect x="184.6" y="292" width="16" height="16"/>
<rect x="24.6" y="220" width="16" height="128"/>
<path d="M304.6,244h136V132h-136V244z M408.6,212h16v16h-16V212z M376.6,212h16v16h-16V212z M320.6,156c0-4.4,3.6-8,8-8h32
	c4.4,0,8,3.6,8,8v32c0,4.4-3.6,8-8,8h-32c-4.4,0-8-3.6-8-8V156z"/>
<path d="M8.6,364v48H12c8.8-20.2,32.4-29.5,52.6-20.7c9.2,4,16.6,11.4,20.7,20.7h19.3v-12.3L61.7,364H8.6z"/>
<rect x="152.6" y="388" width="288" height="24"/>
<rect x="336.6" y="164" width="16" height="16"/>
<rect x="408.6" y="428" width="32" height="24"/>
<rect x="336.6" y="292" width="16" height="16"/>
<path d="M304.6,372h136V260h-136V372z M408.6,340h16v16h-16V340z M376.6,340h16v16h-16V340z M320.6,284c0-4.4,3.6-8,8-8h32
	c4.4,0,8,3.6,8,8v32c0,4.4-3.6,8-8,8h-32c-4.4,0-8-3.6-8-8V284z"/>
<rect x="336.6" y="36" width="16" height="16"/>
<rect x="280.6" y="428" width="32" height="24"/>
<rect x="152.6" y="428" width="32" height="24"/>
<rect x="120.6" y="404" width="16" height="8"/>
<path d="M304.6,4v112h136V4H304.6z M368.6,60c0,4.4-3.6,8-8,8h-32c-4.4,0-8-3.6-8-8V28c0-4.4,3.6-8,8-8h32c4.4,0,8,3.6,8,8V60z
	 M392.6,100h-16V84h16V100z M424.6,100h-16V84h16V100z"/>
</svg>
